<svg width="736" height="371" viewBox="0 0 736 371" fill="none" xmlns="http://www.w3.org/2000/svg">
<g clip-path="url(#clip0_787_4514)">
<g filter="url(#filter0_d_787_4514)">
<path fillRule="evenodd" clip-rule="evenodd" d="M0 4.40505C0 2.19591 1.79086 0.40506 4 0.40506H732C734.209 0.40506 736 2.19592 736 4.40506V366.405C736 368.614 734.209 370.405 732 370.405H4.00002C1.79088 370.405 0 368.614 0 366.405V4.40505Z" fill="white"/>
</g>
</g>
<g clip-path="url(#clip1_787_4514)">
<g clip-path="url(#clip2_787_4514)">
<path d="M57.806 351.608C57.806 350.117 58.0487 348.956 58.534 348.124C59.0193 347.283 59.8687 346.863 61.082 346.863C62.2867 346.863 63.1317 347.283 63.617 348.124C64.1023 348.956 64.345 350.117 64.345 351.608C64.345 353.125 64.1023 354.303 63.617 355.144C63.1317 355.985 62.2867 356.405 61.082 356.405C59.8687 356.405 59.0193 355.985 58.534 355.144C58.0487 354.303 57.806 353.125 57.806 351.608ZM63.175 351.608C63.175 350.854 63.123 350.217 63.019 349.697C62.9237 349.168 62.72 348.744 62.408 348.423C62.1047 348.102 61.6627 347.942 61.082 347.942C60.4927 347.942 60.042 348.102 59.73 348.423C59.4267 348.744 59.223 349.168 59.119 349.697C59.0237 350.217 58.976 350.854 58.976 351.608C58.976 352.388 59.0237 353.042 59.119 353.571C59.223 354.1 59.4267 354.524 59.73 354.845C60.042 355.166 60.4927 355.326 61.082 355.326C61.6627 355.326 62.1047 355.166 62.408 354.845C62.72 354.524 62.9237 354.1 63.019 353.571C63.123 353.042 63.175 352.388 63.175 351.608ZM65.6571 348.085V347.006H68.1011V356.405H66.9051V348.085H65.6571ZM70.7051 356.483C70.4798 356.483 70.2891 356.405 70.1331 356.249C69.9771 356.093 69.8991 355.902 69.8991 355.677C69.8991 355.452 69.9771 355.261 70.1331 355.105C70.2891 354.949 70.4798 354.871 70.7051 354.871C70.9218 354.871 71.1038 354.949 71.2511 355.105C71.4071 355.261 71.4851 355.452 71.4851 355.677C71.4851 355.902 71.4071 356.093 71.2511 356.249C71.1038 356.405 70.9218 356.483 70.7051 356.483ZM72.8626 351.608C72.8626 350.117 73.1053 348.956 73.5906 348.124C74.076 347.283 74.9253 346.863 76.1386 346.863C77.3433 346.863 78.1883 347.283 78.6736 348.124C79.159 348.956 79.4016 350.117 79.4016 351.608C79.4016 353.125 79.159 354.303 78.6736 355.144C78.1883 355.985 77.3433 356.405 76.1386 356.405C74.9253 356.405 74.076 355.985 73.5906 355.144C73.1053 354.303 72.8626 353.125 72.8626 351.608ZM78.2316 351.608C78.2316 350.854 78.1796 350.217 78.0756 349.697C77.9803 349.168 77.7766 348.744 77.4646 348.423C77.1613 348.102 76.7193 347.942 76.1386 347.942C75.5493 347.942 75.0986 348.102 74.7866 348.423C74.4833 348.744 74.2796 349.168 74.1756 349.697C74.0803 350.217 74.0326 350.854 74.0326 351.608C74.0326 352.388 74.0803 353.042 74.1756 353.571C74.2796 354.1 74.4833 354.524 74.7866 354.845C75.0986 355.166 75.5493 355.326 76.1386 355.326C76.7193 355.326 77.1613 355.166 77.4646 354.845C77.7766 354.524 77.9803 354.1 78.0756 353.571C78.1796 353.042 78.2316 352.388 78.2316 351.608ZM80.7397 354.312V353.415L85.3027 347.097H86.7197V353.285H88.0197V354.312H86.7197V356.405H85.5497V354.312H80.7397ZM85.6017 348.332L82.1047 353.285H85.6017V348.332Z" fill="#A1A8C3"/>
<path d="M145.663 355.456C146.764 354.572 147.626 353.848 148.25 353.285C148.874 352.713 149.398 352.119 149.823 351.504C150.256 350.88 150.473 350.269 150.473 349.671C150.473 349.108 150.334 348.666 150.057 348.345C149.788 348.016 149.351 347.851 148.744 347.851C148.155 347.851 147.695 348.037 147.366 348.41C147.045 348.774 146.872 349.264 146.846 349.879H145.702C145.737 348.908 146.031 348.159 146.586 347.63C147.141 347.101 147.856 346.837 148.731 346.837C149.624 346.837 150.33 347.084 150.85 347.578C151.379 348.072 151.643 348.752 151.643 349.619C151.643 350.338 151.426 351.04 150.993 351.725C150.568 352.401 150.083 352.999 149.537 353.519C148.991 354.03 148.293 354.628 147.444 355.313H151.916V356.301H145.663V355.456ZM153.258 349.372C153.318 348.575 153.626 347.951 154.181 347.5C154.735 347.049 155.455 346.824 156.339 346.824C156.928 346.824 157.435 346.932 157.86 347.149C158.293 347.357 158.618 347.643 158.835 348.007C159.06 348.371 159.173 348.783 159.173 349.242C159.173 349.779 159.017 350.243 158.705 350.633C158.401 351.023 158.003 351.274 157.509 351.387V351.452C158.072 351.591 158.518 351.864 158.848 352.271C159.177 352.678 159.342 353.211 159.342 353.87C159.342 354.364 159.229 354.81 159.004 355.209C158.778 355.599 158.44 355.907 157.99 356.132C157.539 356.357 156.997 356.47 156.365 356.47C155.446 356.47 154.692 356.232 154.103 355.755C153.513 355.27 153.184 354.585 153.115 353.701H154.259C154.319 354.221 154.532 354.646 154.896 354.975C155.26 355.304 155.745 355.469 156.352 355.469C156.958 355.469 157.418 355.313 157.73 355.001C158.05 354.68 158.211 354.269 158.211 353.766C158.211 353.116 157.994 352.648 157.561 352.362C157.127 352.076 156.473 351.933 155.598 351.933H155.299V350.945H155.611C156.408 350.936 157.01 350.806 157.418 350.555C157.825 350.295 158.029 349.896 158.029 349.359C158.029 348.9 157.877 348.531 157.574 348.254C157.279 347.977 156.854 347.838 156.3 347.838C155.762 347.838 155.329 347.977 155 348.254C154.67 348.531 154.475 348.904 154.415 349.372H153.258ZM161.511 356.483C161.285 356.483 161.095 356.405 160.939 356.249C160.783 356.093 160.705 355.902 160.705 355.677C160.705 355.452 160.783 355.261 160.939 355.105C161.095 354.949 161.285 354.871 161.511 354.871C161.727 354.871 161.909 354.949 162.057 355.105C162.213 355.261 162.291 355.452 162.291 355.677C162.291 355.902 162.213 356.093 162.057 356.249C161.909 356.405 161.727 356.483 161.511 356.483ZM163.668 351.608C163.668 350.117 163.911 348.956 164.396 348.124C164.882 347.283 165.731 346.863 166.944 346.863C168.149 346.863 168.994 347.283 169.479 348.124C169.965 348.956 170.207 350.117 170.207 351.608C170.207 353.125 169.965 354.303 169.479 355.144C168.994 355.985 168.149 356.405 166.944 356.405C165.731 356.405 164.882 355.985 164.396 355.144C163.911 354.303 163.668 353.125 163.668 351.608ZM169.037 351.608C169.037 350.854 168.985 350.217 168.881 349.697C168.786 349.168 168.582 348.744 168.27 348.423C167.967 348.102 167.525 347.942 166.944 347.942C166.355 347.942 165.904 348.102 165.592 348.423C165.289 348.744 165.085 349.168 164.981 349.697C164.886 350.217 164.838 350.854 164.838 351.608C164.838 352.388 164.886 353.042 164.981 353.571C165.085 354.1 165.289 354.524 165.592 354.845C165.904 355.166 166.355 355.326 166.944 355.326C167.525 355.326 167.967 355.166 168.27 354.845C168.582 354.524 168.786 354.1 168.881 353.571C168.985 353.042 169.037 352.388 169.037 351.608ZM171.545 354.312V353.415L176.108 347.097H177.525V353.285H178.825V354.312H177.525V356.405H176.355V354.312H171.545ZM176.407 348.332L172.91 353.285H176.407V348.332Z" fill="#A1A8C3"/>
<path d="M236.806 351.608C236.806 350.117 237.049 348.956 237.534 348.124C238.019 347.283 238.869 346.863 240.082 346.863C241.287 346.863 242.132 347.283 242.617 348.124C243.102 348.956 243.345 350.117 243.345 351.608C243.345 353.125 243.102 354.303 242.617 355.144C242.132 355.985 241.287 356.405 240.082 356.405C238.869 356.405 238.019 355.985 237.534 355.144C237.049 354.303 236.806 353.125 236.806 351.608ZM242.175 351.608C242.175 350.854 242.123 350.217 242.019 349.697C241.924 349.168 241.72 348.744 241.408 348.423C241.105 348.102 240.663 347.942 240.082 347.942C239.493 347.942 239.042 348.102 238.73 348.423C238.427 348.744 238.223 349.168 238.119 349.697C238.024 350.217 237.976 350.854 237.976 351.608C237.976 352.388 238.024 353.042 238.119 353.571C238.223 354.1 238.427 354.524 238.73 354.845C239.042 355.166 239.493 355.326 240.082 355.326C240.663 355.326 241.105 355.166 241.408 354.845C241.72 354.524 241.924 354.1 242.019 353.571C242.123 353.042 242.175 352.388 242.175 351.608ZM244.657 348.085V347.006H247.101V356.405H245.905V348.085H244.657ZM249.705 356.483C249.48 356.483 249.289 356.405 249.133 356.249C248.977 356.093 248.899 355.902 248.899 355.677C248.899 355.452 248.977 355.261 249.133 355.105C249.289 354.949 249.48 354.871 249.705 354.871C249.922 354.871 250.104 354.949 250.251 355.105C250.407 355.261 250.485 355.452 250.485 355.677C250.485 355.902 250.407 356.093 250.251 356.249C250.104 356.405 249.922 356.483 249.705 356.483ZM251.863 351.608C251.863 350.117 252.105 348.956 252.591 348.124C253.076 347.283 253.925 346.863 255.139 346.863C256.343 346.863 257.188 347.283 257.674 348.124C258.159 348.956 258.402 350.117 258.402 351.608C258.402 353.125 258.159 354.303 257.674 355.144C257.188 355.985 256.343 356.405 255.139 356.405C253.925 356.405 253.076 355.985 252.591 355.144C252.105 354.303 251.863 353.125 251.863 351.608ZM257.232 351.608C257.232 350.854 257.18 350.217 257.076 349.697C256.98 349.168 256.777 348.744 256.465 348.423C256.161 348.102 255.719 347.942 255.139 347.942C254.549 347.942 254.099 348.102 253.787 348.423C253.483 348.744 253.28 349.168 253.176 349.697C253.08 350.217 253.033 350.854 253.033 351.608C253.033 352.388 253.08 353.042 253.176 353.571C253.28 354.1 253.483 354.524 253.787 354.845C254.099 355.166 254.549 355.326 255.139 355.326C255.719 355.326 256.161 355.166 256.465 354.845C256.777 354.524 256.98 354.1 257.076 353.571C257.18 353.042 257.232 352.388 257.232 351.608ZM266.019 348.033H261.456V350.997C261.655 350.72 261.95 350.494 262.34 350.321C262.73 350.139 263.15 350.048 263.601 350.048C264.32 350.048 264.905 350.2 265.356 350.503C265.806 350.798 266.127 351.183 266.318 351.66C266.517 352.128 266.617 352.626 266.617 353.155C266.617 353.779 266.5 354.338 266.266 354.832C266.032 355.326 265.672 355.716 265.187 356.002C264.71 356.288 264.116 356.431 263.406 356.431C262.496 356.431 261.759 356.197 261.196 355.729C260.632 355.261 260.29 354.637 260.169 353.857H261.326C261.438 354.351 261.677 354.737 262.041 355.014C262.405 355.291 262.864 355.43 263.419 355.43C264.103 355.43 264.619 355.226 264.966 354.819C265.312 354.403 265.486 353.857 265.486 353.181C265.486 352.505 265.312 351.985 264.966 351.621C264.619 351.248 264.108 351.062 263.432 351.062C262.972 351.062 262.569 351.175 262.223 351.4C261.885 351.617 261.638 351.916 261.482 352.297H260.364V346.993H266.019V348.033Z" fill="#A1A8C3"/>
<path d="M327.806 351.608C327.806 350.117 328.049 348.956 328.534 348.124C329.019 347.283 329.869 346.863 331.082 346.863C332.287 346.863 333.132 347.283 333.617 348.124C334.102 348.956 334.345 350.117 334.345 351.608C334.345 353.125 334.102 354.303 333.617 355.144C333.132 355.985 332.287 356.405 331.082 356.405C329.869 356.405 329.019 355.985 328.534 355.144C328.049 354.303 327.806 353.125 327.806 351.608ZM333.175 351.608C333.175 350.854 333.123 350.217 333.019 349.697C332.924 349.168 332.72 348.744 332.408 348.423C332.105 348.102 331.663 347.942 331.082 347.942C330.493 347.942 330.042 348.102 329.73 348.423C329.427 348.744 329.223 349.168 329.119 349.697C329.024 350.217 328.976 350.854 328.976 351.608C328.976 352.388 329.024 353.042 329.119 353.571C329.223 354.1 329.427 354.524 329.73 354.845C330.042 355.166 330.493 355.326 331.082 355.326C331.663 355.326 332.105 355.166 332.408 354.845C332.72 354.524 332.924 354.1 333.019 353.571C333.123 353.042 333.175 352.388 333.175 351.608ZM335.657 348.085V347.006H338.101V356.405H336.905V348.085H335.657ZM340.705 356.483C340.48 356.483 340.289 356.405 340.133 356.249C339.977 356.093 339.899 355.902 339.899 355.677C339.899 355.452 339.977 355.261 340.133 355.105C340.289 354.949 340.48 354.871 340.705 354.871C340.922 354.871 341.104 354.949 341.251 355.105C341.407 355.261 341.485 355.452 341.485 355.677C341.485 355.902 341.407 356.093 341.251 356.249C341.104 356.405 340.922 356.483 340.705 356.483ZM342.863 351.608C342.863 350.117 343.105 348.956 343.591 348.124C344.076 347.283 344.925 346.863 346.139 346.863C347.343 346.863 348.188 347.283 348.674 348.124C349.159 348.956 349.402 350.117 349.402 351.608C349.402 353.125 349.159 354.303 348.674 355.144C348.188 355.985 347.343 356.405 346.139 356.405C344.925 356.405 344.076 355.985 343.591 355.144C343.105 354.303 342.863 353.125 342.863 351.608ZM348.232 351.608C348.232 350.854 348.18 350.217 348.076 349.697C347.98 349.168 347.777 348.744 347.465 348.423C347.161 348.102 346.719 347.942 346.139 347.942C345.549 347.942 345.099 348.102 344.787 348.423C344.483 348.744 344.28 349.168 344.176 349.697C344.08 350.217 344.033 350.854 344.033 351.608C344.033 352.388 344.08 353.042 344.176 353.571C344.28 354.1 344.483 354.524 344.787 354.845C345.099 355.166 345.549 355.326 346.139 355.326C346.719 355.326 347.161 355.166 347.465 354.845C347.777 354.524 347.98 354.1 348.076 353.571C348.18 353.042 348.232 352.388 348.232 351.608ZM356.265 349.242C356.074 348.28 355.48 347.799 354.484 347.799C353.712 347.799 353.136 348.098 352.755 348.696C352.373 349.285 352.187 350.26 352.196 351.621C352.395 351.17 352.724 350.819 353.184 350.568C353.652 350.308 354.172 350.178 354.744 350.178C355.636 350.178 356.347 350.455 356.876 351.01C357.413 351.565 357.682 352.332 357.682 353.311C357.682 353.9 357.565 354.429 357.331 354.897C357.105 355.365 356.759 355.738 356.291 356.015C355.831 356.292 355.272 356.431 354.614 356.431C353.721 356.431 353.023 356.232 352.521 355.833C352.018 355.434 351.667 354.884 351.468 354.182C351.268 353.48 351.169 352.613 351.169 351.582C351.169 348.401 352.278 346.811 354.497 346.811C355.346 346.811 356.013 347.041 356.499 347.5C356.984 347.959 357.27 348.54 357.357 349.242H356.265ZM354.497 351.179C354.124 351.179 353.773 351.257 353.444 351.413C353.114 351.56 352.846 351.79 352.638 352.102C352.438 352.405 352.339 352.778 352.339 353.22C352.339 353.879 352.529 354.416 352.911 354.832C353.292 355.239 353.838 355.443 354.549 355.443C355.155 355.443 355.636 355.257 355.992 354.884C356.356 354.503 356.538 353.991 356.538 353.35C356.538 352.674 356.364 352.145 356.018 351.764C355.671 351.374 355.164 351.179 354.497 351.179Z" fill="#A1A8C3"/>
<path d="M419.663 355.456C420.764 354.572 421.626 353.848 422.25 353.285C422.874 352.713 423.398 352.119 423.823 351.504C424.256 350.88 424.473 350.269 424.473 349.671C424.473 349.108 424.334 348.666 424.057 348.345C423.788 348.016 423.351 347.851 422.744 347.851C422.155 347.851 421.695 348.037 421.366 348.41C421.045 348.774 420.872 349.264 420.846 349.879H419.702C419.737 348.908 420.031 348.159 420.586 347.63C421.141 347.101 421.856 346.837 422.731 346.837C423.624 346.837 424.33 347.084 424.85 347.578C425.379 348.072 425.643 348.752 425.643 349.619C425.643 350.338 425.426 351.04 424.993 351.725C424.568 352.401 424.083 352.999 423.537 353.519C422.991 354.03 422.293 354.628 421.444 355.313H425.916V356.301H419.663V355.456ZM427.284 351.608C427.284 350.117 427.526 348.956 428.012 348.124C428.497 347.283 429.346 346.863 430.56 346.863C431.764 346.863 432.609 347.283 433.095 348.124C433.58 348.956 433.823 350.117 433.823 351.608C433.823 353.125 433.58 354.303 433.095 355.144C432.609 355.985 431.764 356.405 430.56 356.405C429.346 356.405 428.497 355.985 428.012 355.144C427.526 354.303 427.284 353.125 427.284 351.608ZM432.653 351.608C432.653 350.854 432.601 350.217 432.497 349.697C432.401 349.168 432.198 348.744 431.886 348.423C431.582 348.102 431.14 347.942 430.56 347.942C429.97 347.942 429.52 348.102 429.208 348.423C428.904 348.744 428.701 349.168 428.597 349.697C428.501 350.217 428.454 350.854 428.454 351.608C428.454 352.388 428.501 353.042 428.597 353.571C428.701 354.1 428.904 354.524 429.208 354.845C429.52 355.166 429.97 355.326 430.56 355.326C431.14 355.326 431.582 355.166 431.886 354.845C432.198 354.524 432.401 354.1 432.497 353.571C432.601 353.042 432.653 352.388 432.653 351.608ZM436.019 356.483C435.793 356.483 435.603 356.405 435.447 356.249C435.291 356.093 435.213 355.902 435.213 355.677C435.213 355.452 435.291 355.261 435.447 355.105C435.603 354.949 435.793 354.871 436.019 354.871C436.235 354.871 436.417 354.949 436.565 355.105C436.721 355.261 436.799 355.452 436.799 355.677C436.799 355.902 436.721 356.093 436.565 356.249C436.417 356.405 436.235 356.483 436.019 356.483ZM438.176 351.608C438.176 350.117 438.419 348.956 438.904 348.124C439.389 347.283 440.239 346.863 441.452 346.863C442.657 346.863 443.502 347.283 443.987 348.124C444.472 348.956 444.715 350.117 444.715 351.608C444.715 353.125 444.472 354.303 443.987 355.144C443.502 355.985 442.657 356.405 441.452 356.405C440.239 356.405 439.389 355.985 438.904 355.144C438.419 354.303 438.176 353.125 438.176 351.608ZM443.545 351.608C443.545 350.854 443.493 350.217 443.389 349.697C443.294 349.168 443.09 348.744 442.778 348.423C442.475 348.102 442.033 347.942 441.452 347.942C440.863 347.942 440.412 348.102 440.1 348.423C439.797 348.744 439.593 349.168 439.489 349.697C439.394 350.217 439.346 350.854 439.346 351.608C439.346 352.388 439.394 353.042 439.489 353.571C439.593 354.1 439.797 354.524 440.1 354.845C440.412 355.166 440.863 355.326 441.452 355.326C442.033 355.326 442.475 355.166 442.778 354.845C443.09 354.524 443.294 354.1 443.389 353.571C443.493 353.042 443.545 352.388 443.545 351.608ZM451.578 349.242C451.388 348.28 450.794 347.799 449.797 347.799C449.026 347.799 448.45 348.098 448.068 348.696C447.687 349.285 447.501 350.26 447.509 351.621C447.709 351.17 448.038 350.819 448.497 350.568C448.965 350.308 449.485 350.178 450.057 350.178C450.95 350.178 451.661 350.455 452.189 351.01C452.727 351.565 452.995 352.332 452.995 353.311C452.995 353.9 452.878 354.429 452.644 354.897C452.419 355.365 452.072 355.738 451.604 356.015C451.145 356.292 450.586 356.431 449.927 356.431C449.035 356.431 448.337 356.232 447.834 355.833C447.332 355.434 446.981 354.884 446.781 354.182C446.582 353.48 446.482 352.613 446.482 351.582C446.482 348.401 447.592 346.811 449.81 346.811C450.66 346.811 451.327 347.041 451.812 347.5C452.298 347.959 452.584 348.54 452.67 349.242H451.578ZM449.81 351.179C449.438 351.179 449.087 351.257 448.757 351.413C448.428 351.56 448.159 351.79 447.951 352.102C447.752 352.405 447.652 352.778 447.652 353.22C447.652 353.879 447.843 354.416 448.224 354.832C448.606 355.239 449.152 355.443 449.862 355.443C450.469 355.443 450.95 355.257 451.305 354.884C451.669 354.503 451.851 353.991 451.851 353.35C451.851 352.674 451.678 352.145 451.331 351.764C450.985 351.374 450.478 351.179 449.81 351.179Z" fill="#A1A8C3"/>
<path d="M511.806 351.608C511.806 350.117 512.049 348.956 512.534 348.124C513.019 347.283 513.869 346.863 515.082 346.863C516.287 346.863 517.132 347.283 517.617 348.124C518.102 348.956 518.345 350.117 518.345 351.608C518.345 353.125 518.102 354.303 517.617 355.144C517.132 355.985 516.287 356.405 515.082 356.405C513.869 356.405 513.019 355.985 512.534 355.144C512.049 354.303 511.806 353.125 511.806 351.608ZM517.175 351.608C517.175 350.854 517.123 350.217 517.019 349.697C516.924 349.168 516.72 348.744 516.408 348.423C516.105 348.102 515.663 347.942 515.082 347.942C514.493 347.942 514.042 348.102 513.73 348.423C513.427 348.744 513.223 349.168 513.119 349.697C513.024 350.217 512.976 350.854 512.976 351.608C512.976 352.388 513.024 353.042 513.119 353.571C513.223 354.1 513.427 354.524 513.73 354.845C514.042 355.166 514.493 355.326 515.082 355.326C515.663 355.326 516.105 355.166 516.408 354.845C516.72 354.524 516.924 354.1 517.019 353.571C517.123 353.042 517.175 352.388 517.175 351.608ZM519.657 348.085V347.006H522.101V356.405H520.905V348.085H519.657ZM524.705 356.483C524.48 356.483 524.289 356.405 524.133 356.249C523.977 356.093 523.899 355.902 523.899 355.677C523.899 355.452 523.977 355.261 524.133 355.105C524.289 354.949 524.48 354.871 524.705 354.871C524.922 354.871 525.104 354.949 525.251 355.105C525.407 355.261 525.485 355.452 525.485 355.677C525.485 355.902 525.407 356.093 525.251 356.249C525.104 356.405 524.922 356.483 524.705 356.483ZM526.863 351.608C526.863 350.117 527.105 348.956 527.591 348.124C528.076 347.283 528.925 346.863 530.139 346.863C531.343 346.863 532.188 347.283 532.674 348.124C533.159 348.956 533.402 350.117 533.402 351.608C533.402 353.125 533.159 354.303 532.674 355.144C532.188 355.985 531.343 356.405 530.139 356.405C528.925 356.405 528.076 355.985 527.591 355.144C527.105 354.303 526.863 353.125 526.863 351.608ZM532.232 351.608C532.232 350.854 532.18 350.217 532.076 349.697C531.98 349.168 531.777 348.744 531.465 348.423C531.161 348.102 530.719 347.942 530.139 347.942C529.549 347.942 529.099 348.102 528.787 348.423C528.483 348.744 528.28 349.168 528.176 349.697C528.08 350.217 528.033 350.854 528.033 351.608C528.033 352.388 528.08 353.042 528.176 353.571C528.28 354.1 528.483 354.524 528.787 354.845C529.099 355.166 529.549 355.326 530.139 355.326C530.719 355.326 531.161 355.166 531.465 354.845C531.777 354.524 531.98 354.1 532.076 353.571C532.18 353.042 532.232 352.388 532.232 351.608ZM540.811 347.929L537.197 356.405H536.001L539.667 348.046H534.649V347.032H540.811V347.929Z" fill="#A1A8C3"/>
<path d="M603.806 351.608C603.806 350.117 604.049 348.956 604.534 348.124C605.019 347.283 605.869 346.863 607.082 346.863C608.287 346.863 609.132 347.283 609.617 348.124C610.102 348.956 610.345 350.117 610.345 351.608C610.345 353.125 610.102 354.303 609.617 355.144C609.132 355.985 608.287 356.405 607.082 356.405C605.869 356.405 605.019 355.985 604.534 355.144C604.049 354.303 603.806 353.125 603.806 351.608ZM609.175 351.608C609.175 350.854 609.123 350.217 609.019 349.697C608.924 349.168 608.72 348.744 608.408 348.423C608.105 348.102 607.663 347.942 607.082 347.942C606.493 347.942 606.042 348.102 605.73 348.423C605.427 348.744 605.223 349.168 605.119 349.697C605.024 350.217 604.976 350.854 604.976 351.608C604.976 352.388 605.024 353.042 605.119 353.571C605.223 354.1 605.427 354.524 605.73 354.845C606.042 355.166 606.493 355.326 607.082 355.326C607.663 355.326 608.105 355.166 608.408 354.845C608.72 354.524 608.924 354.1 609.019 353.571C609.123 353.042 609.175 352.388 609.175 351.608ZM611.657 348.085V347.006H614.101V356.405H612.905V348.085H611.657ZM616.705 356.483C616.48 356.483 616.289 356.405 616.133 356.249C615.977 356.093 615.899 355.902 615.899 355.677C615.899 355.452 615.977 355.261 616.133 355.105C616.289 354.949 616.48 354.871 616.705 354.871C616.922 354.871 617.104 354.949 617.251 355.105C617.407 355.261 617.485 355.452 617.485 355.677C617.485 355.902 617.407 356.093 617.251 356.249C617.104 356.405 616.922 356.483 616.705 356.483ZM618.863 351.608C618.863 350.117 619.105 348.956 619.591 348.124C620.076 347.283 620.925 346.863 622.139 346.863C623.343 346.863 624.188 347.283 624.674 348.124C625.159 348.956 625.402 350.117 625.402 351.608C625.402 353.125 625.159 354.303 624.674 355.144C624.188 355.985 623.343 356.405 622.139 356.405C620.925 356.405 620.076 355.985 619.591 355.144C619.105 354.303 618.863 353.125 618.863 351.608ZM624.232 351.608C624.232 350.854 624.18 350.217 624.076 349.697C623.98 349.168 623.777 348.744 623.465 348.423C623.161 348.102 622.719 347.942 622.139 347.942C621.549 347.942 621.099 348.102 620.787 348.423C620.483 348.744 620.28 349.168 620.176 349.697C620.08 350.217 620.033 350.854 620.033 351.608C620.033 352.388 620.08 353.042 620.176 353.571C620.28 354.1 620.483 354.524 620.787 354.845C621.099 355.166 621.549 355.326 622.139 355.326C622.719 355.326 623.161 355.166 623.465 354.845C623.777 354.524 623.98 354.1 624.076 353.571C624.18 353.042 624.232 352.388 624.232 351.608ZM628.742 351.517C628.256 351.326 627.884 351.049 627.624 350.685C627.364 350.321 627.234 349.879 627.234 349.359C627.234 348.891 627.351 348.471 627.585 348.098C627.819 347.717 628.165 347.418 628.625 347.201C629.093 346.976 629.656 346.863 630.315 346.863C630.973 346.863 631.532 346.976 631.992 347.201C632.46 347.418 632.811 347.717 633.045 348.098C633.287 348.471 633.409 348.891 633.409 349.359C633.409 349.862 633.274 350.304 633.006 350.685C632.737 351.058 632.369 351.335 631.901 351.517C632.438 351.682 632.863 351.972 633.175 352.388C633.495 352.795 633.656 353.289 633.656 353.87C633.656 354.433 633.517 354.927 633.24 355.352C632.962 355.768 632.568 356.093 632.057 356.327C631.554 356.552 630.973 356.665 630.315 356.665C629.656 356.665 629.075 356.552 628.573 356.327C628.079 356.093 627.693 355.768 627.416 355.352C627.138 354.927 627 354.433 627 353.87C627 353.289 627.156 352.791 627.468 352.375C627.78 351.959 628.204 351.673 628.742 351.517ZM632.265 349.502C632.265 348.973 632.091 348.566 631.745 348.28C631.398 347.994 630.921 347.851 630.315 347.851C629.717 347.851 629.244 347.994 628.898 348.28C628.551 348.566 628.378 348.978 628.378 349.515C628.378 350 628.555 350.39 628.911 350.685C629.275 350.98 629.743 351.127 630.315 351.127C630.895 351.127 631.363 350.98 631.719 350.685C632.083 350.382 632.265 349.987 632.265 349.502ZM630.315 352.037C629.673 352.037 629.149 352.189 628.742 352.492C628.334 352.787 628.131 353.233 628.131 353.831C628.131 354.386 628.326 354.832 628.716 355.17C629.114 355.508 629.647 355.677 630.315 355.677C630.982 355.677 631.511 355.508 631.901 355.17C632.291 354.832 632.486 354.386 632.486 353.831C632.486 353.25 632.286 352.808 631.888 352.505C631.489 352.193 630.965 352.037 630.315 352.037Z" fill="#A1A8C3"/>
<path d="M694.494 348.085V347.006H696.938V356.405H695.742V348.085H694.494ZM698.97 351.608C698.97 350.117 699.213 348.956 699.698 348.124C700.183 347.283 701.033 346.863 702.246 346.863C703.451 346.863 704.296 347.283 704.781 348.124C705.266 348.956 705.509 350.117 705.509 351.608C705.509 353.125 705.266 354.303 704.781 355.144C704.296 355.985 703.451 356.405 702.246 356.405C701.033 356.405 700.183 355.985 699.698 355.144C699.213 354.303 698.97 353.125 698.97 351.608ZM704.339 351.608C704.339 350.854 704.287 350.217 704.183 349.697C704.088 349.168 703.884 348.744 703.572 348.423C703.269 348.102 702.827 347.942 702.246 347.942C701.657 347.942 701.206 348.102 700.894 348.423C700.591 348.744 700.387 349.168 700.283 349.697C700.188 350.217 700.14 350.854 700.14 351.608C700.14 352.388 700.188 353.042 700.283 353.571C700.387 354.1 700.591 354.524 700.894 354.845C701.206 355.166 701.657 355.326 702.246 355.326C702.827 355.326 703.269 355.166 703.572 354.845C703.884 354.524 704.088 354.1 704.183 353.571C704.287 353.042 704.339 352.388 704.339 351.608ZM707.705 356.483C707.48 356.483 707.289 356.405 707.133 356.249C706.977 356.093 706.899 355.902 706.899 355.677C706.899 355.452 706.977 355.261 707.133 355.105C707.289 354.949 707.48 354.871 707.705 354.871C707.922 354.871 708.104 354.949 708.251 355.105C708.407 355.261 708.485 355.452 708.485 355.677C708.485 355.902 708.407 356.093 708.251 356.249C708.104 356.405 707.922 356.483 707.705 356.483ZM709.863 351.608C709.863 350.117 710.105 348.956 710.591 348.124C711.076 347.283 711.925 346.863 713.139 346.863C714.343 346.863 715.188 347.283 715.674 348.124C716.159 348.956 716.402 350.117 716.402 351.608C716.402 353.125 716.159 354.303 715.674 355.144C715.188 355.985 714.343 356.405 713.139 356.405C711.925 356.405 711.076 355.985 710.591 355.144C710.105 354.303 709.863 353.125 709.863 351.608ZM715.232 351.608C715.232 350.854 715.18 350.217 715.076 349.697C714.98 349.168 714.777 348.744 714.465 348.423C714.161 348.102 713.719 347.942 713.139 347.942C712.549 347.942 712.099 348.102 711.787 348.423C711.483 348.744 711.28 349.168 711.176 349.697C711.08 350.217 711.033 350.854 711.033 351.608C711.033 352.388 711.08 353.042 711.176 353.571C711.28 354.1 711.483 354.524 711.787 354.845C712.099 355.166 712.549 355.326 713.139 355.326C713.719 355.326 714.161 355.166 714.465 354.845C714.777 354.524 714.98 354.1 715.076 353.571C715.18 353.042 715.232 352.388 715.232 351.608ZM719.742 351.517C719.256 351.326 718.884 351.049 718.624 350.685C718.364 350.321 718.234 349.879 718.234 349.359C718.234 348.891 718.351 348.471 718.585 348.098C718.819 347.717 719.165 347.418 719.625 347.201C720.093 346.976 720.656 346.863 721.315 346.863C721.973 346.863 722.532 346.976 722.992 347.201C723.46 347.418 723.811 347.717 724.045 348.098C724.287 348.471 724.409 348.891 724.409 349.359C724.409 349.862 724.274 350.304 724.006 350.685C723.737 351.058 723.369 351.335 722.901 351.517C723.438 351.682 723.863 351.972 724.175 352.388C724.495 352.795 724.656 353.289 724.656 353.87C724.656 354.433 724.517 354.927 724.24 355.352C723.962 355.768 723.568 356.093 723.057 356.327C722.554 356.552 721.973 356.665 721.315 356.665C720.656 356.665 720.075 356.552 719.573 356.327C719.079 356.093 718.693 355.768 718.416 355.352C718.138 354.927 718 354.433 718 353.87C718 353.289 718.156 352.791 718.468 352.375C718.78 351.959 719.204 351.673 719.742 351.517ZM723.265 349.502C723.265 348.973 723.091 348.566 722.745 348.28C722.398 347.994 721.921 347.851 721.315 347.851C720.717 347.851 720.244 347.994 719.898 348.28C719.551 348.566 719.378 348.978 719.378 349.515C719.378 350 719.555 350.39 719.911 350.685C720.275 350.98 720.743 351.127 721.315 351.127C721.895 351.127 722.363 350.98 722.719 350.685C723.083 350.382 723.265 349.987 723.265 349.502ZM721.315 352.037C720.673 352.037 720.149 352.189 719.742 352.492C719.334 352.787 719.131 353.233 719.131 353.831C719.131 354.386 719.326 354.832 719.716 355.17C720.114 355.508 720.647 355.677 721.315 355.677C721.982 355.677 722.511 355.508 722.901 355.17C723.291 354.832 723.486 354.386 723.486 353.831C723.486 353.25 723.286 352.808 722.888 352.505C722.489 352.193 721.965 352.037 721.315 352.037Z" fill="#A1A8C3"/>
<path d="M57.3633 69.4051H735.424" stroke="#D8DFFD" stroke-linecap="square" stroke-dasharray="3 4"/>
<path d="M57.4281 122.405H735.321" stroke="#D8DFFD" stroke-linecap="square" stroke-dasharray="3 4"/>
<path d="M57.4281 230.405H735.321" stroke="#D8DFFD" stroke-linecap="square" stroke-dasharray="3 4"/>
<path d="M57.4281 284.405H735.321" stroke="#D8DFFD" stroke-linecap="square" stroke-dasharray="3 4"/>
<path d="M57.4281 338.405H735.321" stroke="#D8DFFD" stroke-linecap="square" stroke-dasharray="3 4"/>
<path d="M57.4281 176.405H735.321" stroke="#D8DFFD" stroke-linecap="square" stroke-dasharray="3 4"/>
<path d="M57.3633 17.4051H735.424" stroke="#D8DFFD" stroke-linecap="square" stroke-dasharray="3 4"/>
<path d="M24.6846 13.2421C24.494 12.2801 23.9003 11.7991 22.9036 11.7991C22.1323 11.7991 21.556 12.0981 21.1746 12.6961C20.7933 13.2854 20.607 14.2604 20.6156 15.6211C20.815 15.1704 21.1443 14.8194 21.6036 14.5681C22.0716 14.3081 22.5916 14.1781 23.1636 14.1781C24.0563 14.1781 24.767 14.4554 25.2956 15.0101C25.833 15.5647 26.1016 16.3317 26.1016 17.3111C26.1016 17.9004 25.9846 18.4291 25.7506 18.8971C25.5253 19.3651 25.1786 19.7377 24.7106 20.0151C24.2513 20.2924 23.6923 20.4311 23.0336 20.4311C22.141 20.4311 21.4433 20.2317 20.9406 19.8331C20.438 19.4344 20.087 18.8841 19.8876 18.1821C19.6883 17.4801 19.5886 16.6134 19.5886 15.5821C19.5886 12.4014 20.698 10.8111 22.9166 10.8111C23.766 10.8111 24.4333 11.0407 24.9186 11.5001C25.404 11.9594 25.69 12.5401 25.7766 13.2421H24.6846ZM22.9166 15.1791C22.544 15.1791 22.193 15.2571 21.8636 15.4131C21.5343 15.5604 21.2656 15.7901 21.0576 16.1021C20.8583 16.4054 20.7586 16.7781 20.7586 17.2201C20.7586 17.8787 20.9493 18.4161 21.3306 18.8321C21.712 19.2394 22.258 19.4431 22.9686 19.4431C23.5753 19.4431 24.0563 19.2567 24.4116 18.8841C24.7756 18.5027 24.9576 17.9914 24.9576 17.3501C24.9576 16.6741 24.7843 16.1454 24.4376 15.7641C24.091 15.3741 23.584 15.1791 22.9166 15.1791ZM27.6976 15.6081C27.6976 14.1174 27.9403 12.9561 28.4256 12.1241C28.9109 11.2834 29.7603 10.8631 30.9736 10.8631C32.1783 10.8631 33.0233 11.2834 33.5086 12.1241C33.9939 12.9561 34.2366 14.1174 34.2366 15.6081C34.2366 17.1247 33.9939 18.3034 33.5086 19.1441C33.0233 19.9847 32.1783 20.4051 30.9736 20.4051C29.7603 20.4051 28.9109 19.9847 28.4256 19.1441C27.9403 18.3034 27.6976 17.1247 27.6976 15.6081ZM33.0666 15.6081C33.0666 14.8541 33.0146 14.2171 32.9106 13.6971C32.8153 13.1684 32.6116 12.7437 32.2996 12.4231C31.9963 12.1024 31.5543 11.9421 30.9736 11.9421C30.3843 11.9421 29.9336 12.1024 29.6216 12.4231C29.3183 12.7437 29.1146 13.1684 29.0106 13.6971C28.9153 14.2171 28.8676 14.8541 28.8676 15.6081C28.8676 16.3881 28.9153 17.0424 29.0106 17.5711C29.1146 18.0997 29.3183 18.5244 29.6216 18.8451C29.9336 19.1657 30.3843 19.3261 30.9736 19.3261C31.5543 19.3261 31.9963 19.1657 32.2996 18.8451C32.6116 18.5244 32.8153 18.0997 32.9106 17.5711C33.0146 17.0424 33.0666 16.3881 33.0666 15.6081ZM35.8607 15.6081C35.8607 14.1174 36.1034 12.9561 36.5887 12.1241C37.074 11.2834 37.9234 10.8631 39.1367 10.8631C40.3414 10.8631 41.1864 11.2834 41.6717 12.1241C42.157 12.9561 42.3997 14.1174 42.3997 15.6081C42.3997 17.1247 42.157 18.3034 41.6717 19.1441C41.1864 19.9847 40.3414 20.4051 39.1367 20.4051C37.9234 20.4051 37.074 19.9847 36.5887 19.1441C36.1034 18.3034 35.8607 17.1247 35.8607 15.6081ZM41.2297 15.6081C41.2297 14.8541 41.1777 14.2171 41.0737 13.6971C40.9784 13.1684 40.7747 12.7437 40.4627 12.4231C40.1594 12.1024 39.7174 11.9421 39.1367 11.9421C38.5474 11.9421 38.0967 12.1024 37.7847 12.4231C37.4814 12.7437 37.2777 13.1684 37.1737 13.6971C37.0784 14.2171 37.0307 14.8541 37.0307 15.6081C37.0307 16.3881 37.0784 17.0424 37.1737 17.5711C37.2777 18.0997 37.4814 18.5244 37.7847 18.8451C38.0967 19.1657 38.5474 19.3261 39.1367 19.3261C39.7174 19.3261 40.1594 19.1657 40.4627 18.8451C40.7747 18.5244 40.9784 18.0997 41.0737 17.5711C41.1777 17.0424 41.2297 16.3881 41.2297 15.6081ZM49.1328 20.4051L45.4018 16.2711V20.4051H44.2188V11.3441H45.4018V15.5431L49.1458 11.3441H50.6408L46.5328 15.8811L50.6798 20.4051H49.1328Z" fill="#A1A8C3"/>
<path d="M25.5275 65.0331H20.9645V67.9971C21.1638 67.7197 21.4585 67.4944 21.8485 67.3211C22.2385 67.1391 22.6588 67.0481 23.1095 67.0481C23.8288 67.0481 24.4138 67.1997 24.8645 67.5031C25.3152 67.7977 25.6358 68.1834 25.8265 68.6601C26.0258 69.1281 26.1255 69.6264 26.1255 70.1551C26.1255 70.7791 26.0085 71.3381 25.7745 71.8321C25.5405 72.3261 25.1808 72.7161 24.6955 73.0021C24.2188 73.2881 23.6252 73.4311 22.9145 73.4311C22.0045 73.4311 21.2678 73.1971 20.7045 72.7291C20.1412 72.2611 19.7988 71.6371 19.6775 70.8571H20.8345C20.9472 71.3511 21.1855 71.7367 21.5495 72.0141C21.9135 72.2914 22.3728 72.4301 22.9275 72.4301C23.6122 72.4301 24.1278 72.2264 24.4745 71.8191C24.8212 71.4031 24.9945 70.8571 24.9945 70.1811C24.9945 69.5051 24.8212 68.9851 24.4745 68.6211C24.1278 68.2484 23.6165 68.0621 22.9405 68.0621C22.4812 68.0621 22.0782 68.1747 21.7315 68.4001C21.3935 68.6167 21.1465 68.9157 20.9905 69.2971H19.8725V63.9931H25.5275V65.0331ZM27.6976 68.6081C27.6976 67.1174 27.9403 65.9561 28.4256 65.1241C28.9109 64.2834 29.7603 63.8631 30.9736 63.8631C32.1783 63.8631 33.0233 64.2834 33.5086 65.1241C33.9939 65.9561 34.2366 67.1174 34.2366 68.6081C34.2366 70.1247 33.9939 71.3034 33.5086 72.1441C33.0233 72.9847 32.1783 73.4051 30.9736 73.4051C29.7603 73.4051 28.9109 72.9847 28.4256 72.1441C27.9403 71.3034 27.6976 70.1247 27.6976 68.6081ZM33.0666 68.6081C33.0666 67.8541 33.0146 67.2171 32.9106 66.6971C32.8153 66.1684 32.6116 65.7437 32.2996 65.4231C31.9963 65.1024 31.5543 64.9421 30.9736 64.9421C30.3843 64.9421 29.9336 65.1024 29.6216 65.4231C29.3183 65.7437 29.1146 66.1684 29.0106 66.6971C28.9153 67.2171 28.8676 67.8541 28.8676 68.6081C28.8676 69.3881 28.9153 70.0424 29.0106 70.5711C29.1146 71.0997 29.3183 71.5244 29.6216 71.8451C29.9336 72.1657 30.3843 72.3261 30.9736 72.3261C31.5543 72.3261 31.9963 72.1657 32.2996 71.8451C32.6116 71.5244 32.8153 71.0997 32.9106 70.5711C33.0146 70.0424 33.0666 69.3881 33.0666 68.6081ZM35.8607 68.6081C35.8607 67.1174 36.1034 65.9561 36.5887 65.1241C37.074 64.2834 37.9234 63.8631 39.1367 63.8631C40.3414 63.8631 41.1864 64.2834 41.6717 65.1241C42.157 65.9561 42.3997 67.1174 42.3997 68.6081C42.3997 70.1247 42.157 71.3034 41.6717 72.1441C41.1864 72.9847 40.3414 73.4051 39.1367 73.4051C37.9234 73.4051 37.074 72.9847 36.5887 72.1441C36.1034 71.3034 35.8607 70.1247 35.8607 68.6081ZM41.2297 68.6081C41.2297 67.8541 41.1777 67.2171 41.0737 66.6971C40.9784 66.1684 40.7747 65.7437 40.4627 65.4231C40.1594 65.1024 39.7174 64.9421 39.1367 64.9421C38.5474 64.9421 38.0967 65.1024 37.7847 65.4231C37.4814 65.7437 37.2777 66.1684 37.1737 66.6971C37.0784 67.2171 37.0307 67.8541 37.0307 68.6081C37.0307 69.3881 37.0784 70.0424 37.1737 70.5711C37.2777 71.0997 37.4814 71.5244 37.7847 71.8451C38.0967 72.1657 38.5474 72.3261 39.1367 72.3261C39.7174 72.3261 40.1594 72.1657 40.4627 71.8451C40.7747 71.5244 40.9784 71.0997 41.0737 70.5711C41.1777 70.0424 41.2297 69.3881 41.2297 68.6081ZM49.1328 73.4051L45.4018 69.2711V73.4051H44.2188V64.3441H45.4018V68.5431L49.1458 64.3441H50.6408L46.5328 68.8811L50.6798 73.4051H49.1328Z" fill="#A1A8C3"/>
<path d="M15.2358 124.312V123.415L19.7988 117.097H21.2158V123.285H22.5158V124.312H21.2158V126.405H20.0458V124.312H15.2358ZM20.0978 118.332L16.6008 123.285H20.0978V118.332ZM23.6976 121.608C23.6976 120.117 23.9403 118.956 24.4256 118.124C24.9109 117.283 25.7603 116.863 26.9736 116.863C28.1783 116.863 29.0233 117.283 29.5086 118.124C29.9939 118.956 30.2366 120.117 30.2366 121.608C30.2366 123.125 29.9939 124.303 29.5086 125.144C29.0233 125.985 28.1783 126.405 26.9736 126.405C25.7603 126.405 24.9109 125.985 24.4256 125.144C23.9403 124.303 23.6976 123.125 23.6976 121.608ZM29.0666 121.608C29.0666 120.854 29.0146 120.217 28.9106 119.697C28.8153 119.168 28.6116 118.744 28.2996 118.423C27.9963 118.102 27.5543 117.942 26.9736 117.942C26.3843 117.942 25.9336 118.102 25.6216 118.423C25.3183 118.744 25.1146 119.168 25.0106 119.697C24.9153 120.217 24.8676 120.854 24.8676 121.608C24.8676 122.388 24.9153 123.042 25.0106 123.571C25.1146 124.1 25.3183 124.524 25.6216 124.845C25.9336 125.166 26.3843 125.326 26.9736 125.326C27.5543 125.326 27.9963 125.166 28.2996 124.845C28.6116 124.524 28.8153 124.1 28.9106 123.571C29.0146 123.042 29.0666 122.388 29.0666 121.608ZM31.8607 121.608C31.8607 120.117 32.1034 118.956 32.5887 118.124C33.074 117.283 33.9234 116.863 35.1367 116.863C36.3414 116.863 37.1864 117.283 37.6717 118.124C38.157 118.956 38.3997 120.117 38.3997 121.608C38.3997 123.125 38.157 124.303 37.6717 125.144C37.1864 125.985 36.3414 126.405 35.1367 126.405C33.9234 126.405 33.074 125.985 32.5887 125.144C32.1034 124.303 31.8607 123.125 31.8607 121.608ZM37.2297 121.608C37.2297 120.854 37.1777 120.217 37.0737 119.697C36.9784 119.168 36.7747 118.744 36.4627 118.423C36.1594 118.102 35.7174 117.942 35.1367 117.942C34.5474 117.942 34.0967 118.102 33.7847 118.423C33.4814 118.744 33.2777 119.168 33.1737 119.697C33.0784 120.217 33.0307 120.854 33.0307 121.608C33.0307 122.388 33.0784 123.042 33.1737 123.571C33.2777 124.1 33.4814 124.524 33.7847 124.845C34.0967 125.166 34.5474 125.326 35.1367 125.326C35.7174 125.326 36.1594 125.166 36.4627 124.845C36.7747 124.524 36.9784 124.1 37.0737 123.571C37.1777 123.042 37.2297 122.388 37.2297 121.608ZM45.1328 126.405L41.4018 122.271V126.405H40.2188V117.344H41.4018V121.543L45.1458 117.344H46.6408L42.5328 121.881L46.6798 126.405H45.1328Z" fill="#A1A8C3"/>
<path d="M16.0163 172.372C16.077 171.575 16.3847 170.951 16.9393 170.5C17.494 170.049 18.2133 169.824 19.0973 169.824C19.6867 169.824 20.1937 169.932 20.6183 170.149C21.0517 170.357 21.3767 170.643 21.5933 171.007C21.8187 171.371 21.9313 171.783 21.9313 172.242C21.9313 172.779 21.7753 173.243 21.4633 173.633C21.16 174.023 20.7613 174.274 20.2673 174.387V174.452C20.8307 174.591 21.277 174.864 21.6063 175.271C21.9357 175.678 22.1003 176.211 22.1003 176.87C22.1003 177.364 21.9877 177.81 21.7623 178.209C21.537 178.599 21.199 178.907 20.7483 179.132C20.2977 179.357 19.756 179.47 19.1233 179.47C18.2047 179.47 17.4507 179.232 16.8613 178.755C16.272 178.27 15.9427 177.585 15.8733 176.701H17.0173C17.078 177.221 17.2903 177.646 17.6543 177.975C18.0183 178.304 18.5037 178.469 19.1103 178.469C19.717 178.469 20.1763 178.313 20.4883 178.001C20.809 177.68 20.9693 177.269 20.9693 176.766C20.9693 176.116 20.7527 175.648 20.3193 175.362C19.886 175.076 19.2317 174.933 18.3563 174.933H18.0573V173.945H18.3693C19.1667 173.936 19.769 173.806 20.1763 173.555C20.5837 173.295 20.7873 172.896 20.7873 172.359C20.7873 171.9 20.6357 171.531 20.3323 171.254C20.0377 170.977 19.613 170.838 19.0583 170.838C18.521 170.838 18.0877 170.977 17.7583 171.254C17.429 171.531 17.234 171.904 17.1733 172.372H16.0163ZM23.6976 174.608C23.6976 173.117 23.9403 171.956 24.4256 171.124C24.9109 170.283 25.7603 169.863 26.9736 169.863C28.1783 169.863 29.0233 170.283 29.5086 171.124C29.9939 171.956 30.2366 173.117 30.2366 174.608C30.2366 176.125 29.9939 177.303 29.5086 178.144C29.0233 178.985 28.1783 179.405 26.9736 179.405C25.7603 179.405 24.9109 178.985 24.4256 178.144C23.9403 177.303 23.6976 176.125 23.6976 174.608ZM29.0666 174.608C29.0666 173.854 29.0146 173.217 28.9106 172.697C28.8153 172.168 28.6116 171.744 28.2996 171.423C27.9963 171.102 27.5543 170.942 26.9736 170.942C26.3843 170.942 25.9336 171.102 25.6216 171.423C25.3183 171.744 25.1146 172.168 25.0106 172.697C24.9153 173.217 24.8676 173.854 24.8676 174.608C24.8676 175.388 24.9153 176.042 25.0106 176.571C25.1146 177.1 25.3183 177.524 25.6216 177.845C25.9336 178.166 26.3843 178.326 26.9736 178.326C27.5543 178.326 27.9963 178.166 28.2996 177.845C28.6116 177.524 28.8153 177.1 28.9106 176.571C29.0146 176.042 29.0666 175.388 29.0666 174.608ZM31.8607 174.608C31.8607 173.117 32.1034 171.956 32.5887 171.124C33.074 170.283 33.9234 169.863 35.1367 169.863C36.3414 169.863 37.1864 170.283 37.6717 171.124C38.157 171.956 38.3997 173.117 38.3997 174.608C38.3997 176.125 38.157 177.303 37.6717 178.144C37.1864 178.985 36.3414 179.405 35.1367 179.405C33.9234 179.405 33.074 178.985 32.5887 178.144C32.1034 177.303 31.8607 176.125 31.8607 174.608ZM37.2297 174.608C37.2297 173.854 37.1777 173.217 37.0737 172.697C36.9784 172.168 36.7747 171.744 36.4627 171.423C36.1594 171.102 35.7174 170.942 35.1367 170.942C34.5474 170.942 34.0967 171.102 33.7847 171.423C33.4814 171.744 33.2777 172.168 33.1737 172.697C33.0784 173.217 33.0307 173.854 33.0307 174.608C33.0307 175.388 33.0784 176.042 33.1737 176.571C33.2777 177.1 33.4814 177.524 33.7847 177.845C34.0967 178.166 34.5474 178.326 35.1367 178.326C35.7174 178.326 36.1594 178.166 36.4627 177.845C36.7747 177.524 36.9784 177.1 37.0737 176.571C37.1777 176.042 37.2297 175.388 37.2297 174.608ZM45.1328 179.405L41.4018 175.271V179.405H40.2188V170.344H41.4018V174.543L45.1458 170.344H46.6408L42.5328 174.881L46.6798 179.405H45.1328Z" fill="#A1A8C3"/>
<path d="M16.0771 231.456C17.1777 230.572 18.0401 229.848 18.6641 229.285C19.2881 228.713 19.8124 228.119 20.2371 227.504C20.6704 226.88 20.8871 226.269 20.8871 225.671C20.8871 225.108 20.7484 224.666 20.4711 224.345C20.2024 224.016 19.7647 223.851 19.1581 223.851C18.5687 223.851 18.1094 224.037 17.7801 224.41C17.4594 224.774 17.2861 225.264 17.2601 225.879H16.1161C16.1507 224.908 16.4454 224.159 17.0001 223.63C17.5547 223.101 18.2697 222.837 19.1451 222.837C20.0377 222.837 20.7441 223.084 21.2641 223.578C21.7927 224.072 22.0571 224.752 22.0571 225.619C22.0571 226.338 21.8404 227.04 21.4071 227.725C20.9824 228.401 20.4971 228.999 19.9511 229.519C19.4051 230.03 18.7074 230.628 17.8581 231.313H22.3301V232.301H16.0771V231.456ZM23.6976 227.608C23.6976 226.117 23.9403 224.956 24.4256 224.124C24.9109 223.283 25.7603 222.863 26.9736 222.863C28.1783 222.863 29.0233 223.283 29.5086 224.124C29.9939 224.956 30.2366 226.117 30.2366 227.608C30.2366 229.125 29.9939 230.303 29.5086 231.144C29.0233 231.985 28.1783 232.405 26.9736 232.405C25.7603 232.405 24.9109 231.985 24.4256 231.144C23.9403 230.303 23.6976 229.125 23.6976 227.608ZM29.0666 227.608C29.0666 226.854 29.0146 226.217 28.9106 225.697C28.8153 225.168 28.6116 224.744 28.2996 224.423C27.9963 224.102 27.5543 223.942 26.9736 223.942C26.3843 223.942 25.9336 224.102 25.6216 224.423C25.3183 224.744 25.1146 225.168 25.0106 225.697C24.9153 226.217 24.8676 226.854 24.8676 227.608C24.8676 228.388 24.9153 229.042 25.0106 229.571C25.1146 230.1 25.3183 230.524 25.6216 230.845C25.9336 231.166 26.3843 231.326 26.9736 231.326C27.5543 231.326 27.9963 231.166 28.2996 230.845C28.6116 230.524 28.8153 230.1 28.9106 229.571C29.0146 229.042 29.0666 228.388 29.0666 227.608ZM31.8607 227.608C31.8607 226.117 32.1034 224.956 32.5887 224.124C33.074 223.283 33.9234 222.863 35.1367 222.863C36.3414 222.863 37.1864 223.283 37.6717 224.124C38.157 224.956 38.3997 226.117 38.3997 227.608C38.3997 229.125 38.157 230.303 37.6717 231.144C37.1864 231.985 36.3414 232.405 35.1367 232.405C33.9234 232.405 33.074 231.985 32.5887 231.144C32.1034 230.303 31.8607 229.125 31.8607 227.608ZM37.2297 227.608C37.2297 226.854 37.1777 226.217 37.0737 225.697C36.9784 225.168 36.7747 224.744 36.4627 224.423C36.1594 224.102 35.7174 223.942 35.1367 223.942C34.5474 223.942 34.0967 224.102 33.7847 224.423C33.4814 224.744 33.2777 225.168 33.1737 225.697C33.0784 226.217 33.0307 226.854 33.0307 227.608C33.0307 228.388 33.0784 229.042 33.1737 229.571C33.2777 230.1 33.4814 230.524 33.7847 230.845C34.0967 231.166 34.5474 231.326 35.1367 231.326C35.7174 231.326 36.1594 231.166 36.4627 230.845C36.7747 230.524 36.9784 230.1 37.0737 229.571C37.1777 229.042 37.2297 228.388 37.2297 227.608ZM45.1328 232.405L41.4018 228.271V232.405H40.2188V223.344H41.4018V227.543L45.1458 223.344H46.6408L42.5328 227.881L46.6798 232.405H45.1328Z" fill="#A1A8C3"/>
<path d="M18.2215 277.085V276.006H20.6655V285.405H19.4695V277.085H18.2215ZM22.6976 280.608C22.6976 279.117 22.9403 277.956 23.4256 277.124C23.9109 276.283 24.7603 275.863 25.9736 275.863C27.1783 275.863 28.0233 276.283 28.5086 277.124C28.9939 277.956 29.2366 279.117 29.2366 280.608C29.2366 282.125 28.9939 283.303 28.5086 284.144C28.0233 284.985 27.1783 285.405 25.9736 285.405C24.7603 285.405 23.9109 284.985 23.4256 284.144C22.9403 283.303 22.6976 282.125 22.6976 280.608ZM28.0666 280.608C28.0666 279.854 28.0146 279.217 27.9106 278.697C27.8153 278.168 27.6116 277.744 27.2996 277.423C26.9963 277.102 26.5543 276.942 25.9736 276.942C25.3843 276.942 24.9336 277.102 24.6216 277.423C24.3183 277.744 24.1146 278.168 24.0106 278.697C23.9153 279.217 23.8676 279.854 23.8676 280.608C23.8676 281.388 23.9153 282.042 24.0106 282.571C24.1146 283.1 24.3183 283.524 24.6216 283.845C24.9336 284.166 25.3843 284.326 25.9736 284.326C26.5543 284.326 26.9963 284.166 27.2996 283.845C27.6116 283.524 27.8153 283.1 27.9106 282.571C28.0146 282.042 28.0666 281.388 28.0666 280.608ZM30.8607 280.608C30.8607 279.117 31.1034 277.956 31.5887 277.124C32.074 276.283 32.9234 275.863 34.1367 275.863C35.3414 275.863 36.1864 276.283 36.6717 277.124C37.157 277.956 37.3997 279.117 37.3997 280.608C37.3997 282.125 37.157 283.303 36.6717 284.144C36.1864 284.985 35.3414 285.405 34.1367 285.405C32.9234 285.405 32.074 284.985 31.5887 284.144C31.1034 283.303 30.8607 282.125 30.8607 280.608ZM36.2297 280.608C36.2297 279.854 36.1777 279.217 36.0737 278.697C35.9784 278.168 35.7747 277.744 35.4627 277.423C35.1594 277.102 34.7174 276.942 34.1367 276.942C33.5474 276.942 33.0967 277.102 32.7847 277.423C32.4814 277.744 32.2777 278.168 32.1737 278.697C32.0784 279.217 32.0307 279.854 32.0307 280.608C32.0307 281.388 32.0784 282.042 32.1737 282.571C32.2777 283.1 32.4814 283.524 32.7847 283.845C33.0967 284.166 33.5474 284.326 34.1367 284.326C34.7174 284.326 35.1594 284.166 35.4627 283.845C35.7747 283.524 35.9784 283.1 36.0737 282.571C36.1777 282.042 36.2297 281.388 36.2297 280.608ZM44.1328 285.405L40.4018 281.271V285.405H39.2188V276.344H40.4018V280.543L44.1458 276.344H45.6408L41.5328 280.881L45.6798 285.405H44.1328Z" fill="#A1A8C3"/>
<path d="M30.806 333.608C30.806 332.117 31.0487 330.956 31.534 330.124C32.0193 329.283 32.8687 328.863 34.082 328.863C35.2867 328.863 36.1317 329.283 36.617 330.124C37.1023 330.956 37.345 332.117 37.345 333.608C37.345 335.125 37.1023 336.303 36.617 337.144C36.1317 337.985 35.2867 338.405 34.082 338.405C32.8687 338.405 32.0193 337.985 31.534 337.144C31.0487 336.303 30.806 335.125 30.806 333.608ZM36.175 333.608C36.175 332.854 36.123 332.217 36.019 331.697C35.9237 331.168 35.72 330.744 35.408 330.423C35.1047 330.102 34.6627 329.942 34.082 329.942C33.4927 329.942 33.042 330.102 32.73 330.423C32.4267 330.744 32.223 331.168 32.119 331.697C32.0237 332.217 31.976 332.854 31.976 333.608C31.976 334.388 32.0237 335.042 32.119 335.571C32.223 336.1 32.4267 336.524 32.73 336.845C33.042 337.166 33.4927 337.326 34.082 337.326C34.6627 337.326 35.1047 337.166 35.408 336.845C35.72 336.524 35.9237 336.1 36.019 335.571C36.123 335.042 36.175 334.388 36.175 333.608Z" fill="#A1A8C3"/>
</g>
</g>
<rect x="57" y="121.405" width="17" height="216" rx="4" fill="#ECF5FF"/>
<rect x="147" y="121.405" width="17" height="216" rx="4" fill="#ECF5FF"/>
<rect x="171" y="229.405" width="18" height="106" rx="4" fill="#3E97FF"/>
<rect x="236" y="128.405" width="17" height="209" rx="4" fill="#ECF5FF"/>
<rect x="261" y="229.405" width="17" height="108" rx="4" fill="#3E97FF"/>
<rect x="326" y="136.405" width="17" height="201" rx="4" fill="#ECF5FF"/>
<rect x="350" y="229.405" width="18" height="108" rx="4" fill="#3E97FF"/>
<rect x="505" y="141.405" width="17" height="196" rx="4" fill="#ECF5FF"/>
<rect x="530" y="283.405" width="17" height="54" rx="4" fill="#3E97FF"/>
<rect x="415" y="136.405" width="18" height="202" rx="4" fill="#ECF5FF"/>
<rect x="440" y="283.405" width="17" height="55" rx="4" fill="#3E97FF"/>
<rect x="594" y="147.405" width="18" height="190" rx="4" fill="#ECF5FF"/>
<rect x="619" y="283.405" width="17" height="54" rx="4" fill="#3E97FF"/>
<rect x="684" y="147.405" width="17" height="190" rx="4" fill="#ECF5FF"/>
<rect x="709" y="204.405" width="17" height="133" rx="4" fill="#3E97FF"/>
<defs>
<filter id="filter0_d_787_4514" x="-15" y="-13.5949" width="766" height="400" filterUnits="userSpaceOnUse" color-interpolation-filters="sRGB">
<feFlood flood-opacity="0" result="BackgroundImageFix"/>
<feColorMatrix in="SourceAlpha" type="matrix" values="0 0 0 0 0 0 0 0 0 0 0 0 0 0 0 0 0 0 127 0" result="hardAlpha"/>
<feOffset dy="1"/>
<feGaussianBlur stdDeviation="7.5"/>
<feColorMatrix type="matrix" values="0 0 0 0 0.270588 0 0 0 0 0.254902 0 0 0 0 0.305882 0 0 0 0.08 0"/>
<feBlend mode="normal" in2="BackgroundImageFix" result="effect1_dropShadow_787_4514"/>
<feBlend mode="normal" in="SourceGraphic" in2="effect1_dropShadow_787_4514" result="shape"/>
</filter>
<clipPath id="clip0_787_4514">
<rect width="736" height="370" fill="white" transform="translate(0 0.40506)"/>
</clipPath>
<clipPath id="clip1_787_4514">
<rect width="722" height="356" fill="white" transform="translate(14 5.40506)"/>
</clipPath>
<clipPath id="clip2_787_4514">
<rect width="722" height="356" fill="white" transform="translate(14 5.40506)"/>
</clipPath>
</defs>
</svg>
