<svg width="24" height="24" viewBox="0 0 24 24" fill="none" xmlns="http://www.w3.org/2000/svg">
<path d="M9.84449 11.9983H7.55249C7.6771 11.1295 8.01861 10.3062 8.54549 9.60428L10.1655 11.2243C10.0245 11.4643 9.91499 11.7223 9.84449 11.9983ZM11.226 10.1638L9.60599 8.54378C10.3079 8.0169 11.1312 7.67539 12 7.55078V9.84278C11.724 9.91328 11.4645 10.0228 11.226 10.1638ZM13.5 9.84278V7.55078C14.3687 7.67539 15.1921 8.0169 15.894 8.54378L14.274 10.1638C14.0324 10.0209 13.7718 9.91282 13.5 9.84278ZM15.3345 11.2243L16.9545 9.60428C17.469 10.2913 17.82 11.1088 17.9475 11.9983H15.6555C15.5854 11.7265 15.4774 11.4659 15.3345 11.2243ZM15.6555 13.4983H17.9475C17.8228 14.367 17.4813 15.1904 16.9545 15.8923L15.3345 14.2723C15.4755 14.0323 15.585 13.7743 15.6555 13.4983ZM14.274 15.3328L15.894 16.9528C15.1921 17.4796 14.3687 17.8211 13.5 17.9458V15.6538C13.776 15.5833 14.0355 15.4738 14.274 15.3328ZM12 15.6538V17.9458C11.1313 17.8211 10.3079 17.4796 9.60599 16.9528L11.226 15.3328C11.466 15.4738 11.724 15.5833 12 15.6538ZM10.1655 14.2723L8.54549 15.8923C8.01861 15.1904 7.6771 14.367 7.55249 13.4983H9.84449C9.91499 13.7743 10.0245 14.0338 10.1655 14.2723ZM11.25 12.7483C11.25 12.3505 11.408 11.9689 11.6893 11.6876C11.9706 11.4063 12.3522 11.2483 12.75 11.2483C13.1478 11.2483 13.5293 11.4063 13.8107 11.6876C14.092 11.9689 14.25 12.3505 14.25 12.7483C14.25 13.1461 14.092 13.5276 13.8107 13.8089C13.5293 14.0902 13.1478 14.2483 12.75 14.2483C12.3522 14.2483 11.9706 14.0902 11.6893 13.8089C11.408 13.5276 11.25 13.1461 11.25 12.7483Z" fill="#B3B3B3"/>
<path d="M3.75 1.5C3.15326 1.5 2.58097 1.73705 2.15901 2.15901C1.73705 2.58097 1.5 3.15326 1.5 3.75V4.5H0.75C0.551088 4.5 0.360322 4.57902 0.21967 4.71967C0.0790176 4.86032 0 5.05109 0 5.25C0 5.44891 0.0790176 5.63968 0.21967 5.78033C0.360322 5.92098 0.551088 6 0.75 6H1.5V12H0.75C0.551088 12 0.360322 12.079 0.21967 12.2197C0.0790176 12.3603 0 12.5511 0 12.75C0 12.9489 0.0790176 13.1397 0.21967 13.2803C0.360322 13.421 0.551088 13.5 0.75 13.5H1.5V19.5H0.75C0.551088 19.5 0.360322 19.579 0.21967 19.7197C0.0790176 19.8603 0 20.0511 0 20.25C0 20.4489 0.0790176 20.6397 0.21967 20.7803C0.360322 20.921 0.551088 21 0.75 21H1.5V21.75C1.5 22.3467 1.73705 22.919 2.15901 23.341C2.58097 23.7629 3.15326 24 3.75 24H21.75C22.3467 24 22.919 23.7629 23.341 23.341C23.7629 22.919 24 22.3467 24 21.75V3.75C24 3.15326 23.7629 2.58097 23.341 2.15901C22.919 1.73705 22.3467 1.5 21.75 1.5H3.75ZM12.75 6C14.5402 6 16.2571 6.71116 17.523 7.97703C18.7888 9.2429 19.5 10.9598 19.5 12.75C19.5 14.5402 18.7888 16.2571 17.523 17.523C16.2571 18.7888 14.5402 19.5 12.75 19.5C10.9598 19.5 9.2429 18.7888 7.97703 17.523C6.71116 16.2571 6 14.5402 6 12.75C6 10.9598 6.71116 9.2429 7.97703 7.97703C9.2429 6.71116 10.9598 6 12.75 6Z" fill="#B3B3B3"/>
</svg>
