<svg width="24" height="25" viewBox="0 0 24 25" fill="none" xmlns="http://www.w3.org/2000/svg">
<path d="M8.25 8.75C8.44891 8.75 8.63968 8.82902 8.78033 8.96967C8.92098 9.11032 9 9.30109 9 9.5V18.5C9 18.6989 8.92098 18.8897 8.78033 19.0303C8.63968 19.171 8.44891 19.25 8.25 19.25C8.05109 19.25 7.86032 19.171 7.71967 19.0303C7.57902 18.8897 7.5 18.6989 7.5 18.5V9.5C7.5 9.30109 7.57902 9.11032 7.71967 8.96967C7.86032 8.82902 8.05109 8.75 8.25 8.75ZM12 8.75C12.1989 8.75 12.3897 8.82902 12.5303 8.96967C12.671 9.11032 12.75 9.30109 12.75 9.5V18.5C12.75 18.6989 12.671 18.8897 12.5303 19.0303C12.3897 19.171 12.1989 19.25 12 19.25C11.8011 19.25 11.6103 19.171 11.4697 19.0303C11.329 18.8897 11.25 18.6989 11.25 18.5V9.5C11.25 9.30109 11.329 9.11032 11.4697 8.96967C11.6103 8.82902 11.8011 8.75 12 8.75ZM16.5 9.5C16.5 9.30109 16.421 9.11032 16.2803 8.96967C16.1397 8.82902 15.9489 8.75 15.75 8.75C15.5511 8.75 15.3603 8.82902 15.2197 8.96967C15.079 9.11032 15 9.30109 15 9.5V18.5C15 18.6989 15.079 18.8897 15.2197 19.0303C15.3603 19.171 15.5511 19.25 15.75 19.25C15.9489 19.25 16.1397 19.171 16.2803 19.0303C16.421 18.8897 16.5 18.6989 16.5 18.5V9.5Z" fill="#7A7A7A"/>
<path fill-rule="evenodd" clip-rule="evenodd" d="M21.75 5C21.75 5.39782 21.592 5.77936 21.3107 6.06066C21.0294 6.34196 20.6478 6.5 20.25 6.5H19.5V20C19.5 20.7956 19.1839 21.5587 18.6213 22.1213C18.0587 22.6839 17.2956 23 16.5 23H7.5C6.70435 23 5.94129 22.6839 5.37868 22.1213C4.81607 21.5587 4.5 20.7956 4.5 20V6.5H3.75C3.35218 6.5 2.97064 6.34196 2.68934 6.06066C2.40804 5.77936 2.25 5.39782 2.25 5V3.5C2.25 3.10218 2.40804 2.72064 2.68934 2.43934C2.97064 2.15804 3.35218 2 3.75 2H9C9 1.60218 9.15804 1.22064 9.43934 0.93934C9.72064 0.658035 10.1022 0.5 10.5 0.5L13.5 0.5C13.8978 0.5 14.2794 0.658035 14.5607 0.93934C14.842 1.22064 15 1.60218 15 2H20.25C20.6478 2 21.0294 2.15804 21.3107 2.43934C21.592 2.72064 21.75 3.10218 21.75 3.5V5ZM6.177 6.5L6 6.5885V20C6 20.3978 6.15804 20.7794 6.43934 21.0607C6.72064 21.342 7.10218 21.5 7.5 21.5H16.5C16.8978 21.5 17.2794 21.342 17.5607 21.0607C17.842 20.7794 18 20.3978 18 20V6.5885L17.823 6.5H6.177ZM3.75 5V3.5H20.25V5H3.75Z" fill="#7A7A7A"/>
</svg>
