<svg width="64" height="65" viewBox="0 0 64 65" fill="none" xmlns="http://www.w3.org/2000/svg">
<rect y="0.75" width="64" height="64" rx="10" fill="#F9FDFF"/>
<g opacity="0.8" clip-path="url(#clip0_105_10547)">
<path d="M40.7829 40.4754L38.3379 38.0004C39.4155 36.7281 40.0823 35.1592 40.2504 33.5004H42.5004C42.6993 33.5004 42.8901 33.4214 43.0307 33.2807C43.1714 33.1401 43.2504 32.9493 43.2504 32.7504C43.2504 32.5515 43.1714 32.3607 43.0307 32.2201C42.8901 32.0794 42.6993 32.0004 42.5004 32.0004H40.2504C40.093 30.3458 39.4394 28.7773 38.3754 27.5004L40.7829 25.0254C41.2618 25.2547 41.8064 25.3073 42.3203 25.1739C42.8342 25.0404 43.2844 24.7295 43.5911 24.2961C43.8979 23.8627 44.0416 23.3348 43.9966 22.8058C43.9517 22.2767 43.7212 21.7806 43.3457 21.4051C42.9703 21.0297 42.4741 20.7991 41.9451 20.7542C41.416 20.7092 40.8881 20.8529 40.4547 21.1597C40.0213 21.4664 39.7104 21.9166 39.577 22.4305C39.4435 22.9445 39.4961 23.489 39.7254 23.9679L37.2504 26.4129C35.9735 25.3489 34.405 24.6953 32.7504 24.5379V22.2504C32.7504 22.0515 32.6714 21.8607 32.5307 21.7201C32.3901 21.5794 32.1993 21.5004 32.0004 21.5004C31.8015 21.5004 31.6107 21.5794 31.4701 21.7201C31.3294 21.8607 31.2504 22.0515 31.2504 22.2504V24.5379C29.5958 24.6953 28.0273 25.3489 26.7504 26.4129L24.2754 23.9679C24.5047 23.489 24.5573 22.9445 24.4239 22.4305C24.2904 21.9166 23.9795 21.4664 23.5461 21.1597C23.1127 20.8529 22.5848 20.7092 22.0558 20.7542C21.5267 20.7991 21.0306 21.0297 20.6551 21.4051C20.2797 21.7806 20.0491 22.2767 20.0042 22.8058C19.9592 23.3348 20.1029 23.8627 20.4097 24.2961C20.7164 24.7295 21.1666 25.0404 21.6805 25.1739C22.1945 25.3073 22.739 25.2547 23.2179 25.0254L25.6629 27.5004C24.5989 28.7773 23.9453 30.3458 23.7879 32.0004H21.5004C21.3015 32.0004 21.1107 32.0794 20.9701 32.2201C20.8294 32.3607 20.7504 32.5515 20.7504 32.7504C20.7504 32.9493 20.8294 33.1401 20.9701 33.2807C21.1107 33.4214 21.3015 33.5004 21.5004 33.5004H23.7954C23.943 35.1547 24.5919 36.7247 25.6554 38.0004L23.2179 40.4754C22.739 40.2461 22.1945 40.1935 21.6805 40.327C21.1666 40.4604 20.7164 40.7713 20.4097 41.2047C20.1029 41.6381 19.9592 42.166 20.0042 42.6951C20.0491 43.2241 20.2797 43.7203 20.6551 44.0957C21.0306 44.4712 21.5267 44.7017 22.0558 44.7466C22.5848 44.7916 23.1127 44.6479 23.5461 44.3411C23.9795 44.0344 24.2904 43.5842 24.4239 43.0703C24.5573 42.5564 24.5047 42.0118 24.2754 41.5329L26.7504 39.0804C26.8629 39.1704 26.9604 39.2679 27.0729 39.3504C27.1517 39.4095 27.2414 39.4525 27.3368 39.4769C27.4322 39.5014 27.5315 39.5068 27.629 39.4929C27.7265 39.4789 27.8203 39.4459 27.905 39.3958C27.9898 39.3456 28.0638 39.2792 28.1229 39.2004C28.182 39.1216 28.225 39.0319 28.2494 38.9365C28.2739 38.8411 28.2793 38.7418 28.2654 38.6443C28.2514 38.5468 28.2184 38.453 28.1683 38.3683C28.1181 38.2835 28.0517 38.2095 27.9729 38.1504C27.127 37.5273 26.4397 36.7138 25.9667 35.7756C25.4937 34.8374 25.2483 33.8011 25.2504 32.7504C25.2507 31.3575 25.6819 29.9988 26.4848 28.8606C27.2878 27.7225 28.4232 26.8606 29.7353 26.3932C31.0475 25.9258 32.4721 25.8757 33.8138 26.2499C35.1555 26.6241 36.3485 27.4042 37.2294 28.4832C38.1102 29.5623 38.6357 30.8874 38.7337 32.2768C38.8317 33.6663 38.4975 35.052 37.7768 36.244C37.0562 37.436 35.9844 38.3759 34.7086 38.9347C33.4327 39.4935 32.0152 39.644 30.6504 39.3654C30.5519 39.3457 30.4505 39.3456 30.352 39.3651C30.2534 39.3846 30.1597 39.4233 30.0761 39.479C29.9926 39.5347 29.9208 39.6064 29.8649 39.6898C29.809 39.7733 29.7701 39.8669 29.7504 39.9654C29.7307 40.0639 29.7306 40.1653 29.7501 40.2638C29.7696 40.3624 29.8083 40.4561 29.864 40.5397C29.9197 40.6232 29.9914 40.695 30.0748 40.7509C30.1583 40.8068 30.2519 40.8457 30.3504 40.8654C30.6504 40.9254 30.9504 40.9629 31.2504 40.9929V43.2504C31.2504 43.4493 31.3294 43.6401 31.4701 43.7807C31.6107 43.9214 31.8015 44.0004 32.0004 44.0004C32.1993 44.0004 32.3901 43.9214 32.5307 43.7807C32.6714 43.6401 32.7504 43.4493 32.7504 43.2504V41.0004C34.405 40.843 35.9735 40.1894 37.2504 39.1254L39.7029 41.5704C39.4736 42.0493 39.421 42.5939 39.5545 43.1078C39.6879 43.6217 39.9988 44.0719 40.4322 44.3786C40.8656 44.6854 41.3935 44.8291 41.9226 44.7841C42.4516 44.7392 42.9478 44.5087 43.3232 44.1332C43.6987 43.7578 43.9292 43.2616 43.9741 42.7326C44.0191 42.2035 43.8754 41.6756 43.5686 41.2422C43.2619 40.8088 42.8117 40.4979 42.2978 40.3645C41.7839 40.231 41.2393 40.2836 40.7604 40.5129L40.7829 40.4754ZM22.2504 43.2504C22.1271 43.2509 22.0055 43.221 21.8965 43.1633C21.7875 43.1056 21.6944 43.022 21.6254 42.9197C21.5565 42.8174 21.5138 42.6997 21.5012 42.577C21.4886 42.4543 21.5064 42.3304 21.5532 42.2163C21.5999 42.1021 21.674 42.0013 21.7691 41.9226C21.8641 41.844 21.977 41.79 22.0979 41.7654C22.2188 41.7409 22.3438 41.7465 22.462 41.7818C22.5802 41.8171 22.6878 41.8811 22.7754 41.9679C22.8807 42.0724 22.9527 42.2057 22.9822 42.3511C23.0118 42.4964 22.9976 42.6473 22.9414 42.7845C22.8852 42.9218 22.7895 43.0393 22.6665 43.1223C22.5435 43.2052 22.3987 43.2498 22.2504 43.2504ZM41.7504 22.2504C41.8737 22.2499 41.9953 22.2798 42.1043 22.3375C42.2133 22.3952 42.3065 22.4789 42.3754 22.5811C42.4444 22.6834 42.487 22.8011 42.4996 22.9238C42.5122 23.0465 42.4944 23.1704 42.4476 23.2845C42.4009 23.3987 42.3268 23.4995 42.2317 23.5782C42.1367 23.6568 42.0238 23.7108 41.9029 23.7354C41.782 23.7599 41.657 23.7543 41.5388 23.719C41.4206 23.6837 41.313 23.6198 41.2254 23.5329C41.1201 23.4285 41.0481 23.2951 41.0186 23.1498C40.989 23.0044 41.0033 22.8535 41.0595 22.7163C41.1156 22.579 41.2113 22.4615 41.3343 22.3785C41.4573 22.2956 41.6021 22.251 41.7504 22.2504ZM21.5004 23.0004C21.4999 22.8771 21.5298 22.7555 21.5875 22.6465C21.6452 22.5375 21.7289 22.4444 21.8311 22.3754C21.9334 22.3065 22.0511 22.2638 22.1738 22.2512C22.2965 22.2386 22.4204 22.2564 22.5345 22.3032C22.6487 22.3499 22.7495 22.424 22.8282 22.5191C22.9068 22.6141 22.9608 22.727 22.9854 22.8479C23.0099 22.9688 23.0043 23.0938 22.969 23.212C22.9337 23.3302 22.8698 23.4378 22.7829 23.5254C22.6785 23.6307 22.5451 23.7027 22.3998 23.7322C22.2544 23.7618 22.1035 23.7476 21.9663 23.6914C21.829 23.6352 21.7115 23.5395 21.6285 23.4165C21.5456 23.2935 21.501 23.1487 21.5004 23.0004ZM41.7504 43.2504C41.603 43.2498 41.459 43.2057 41.3365 43.1238C41.2139 43.0418 41.1183 42.9255 41.0614 42.7895C41.0046 42.6534 40.9892 42.5036 41.017 42.3588C41.0448 42.2141 41.1147 42.0807 41.2179 41.9754C41.3046 41.887 41.4117 41.8214 41.5299 41.7845C41.6481 41.7476 41.7735 41.7405 41.8951 41.7639C42.0166 41.7873 42.1305 41.8403 42.2266 41.9184C42.3226 41.9965 42.3979 42.0971 42.4456 42.2114C42.4933 42.3256 42.512 42.4499 42.5 42.5731C42.488 42.6963 42.4457 42.8146 42.3769 42.9175C42.308 43.0203 42.2148 43.1046 42.1055 43.1627C41.9962 43.2208 41.8742 43.2509 41.7504 43.2504Z" fill="#4686EF"/>
<path d="M36.2825 29.9754C36.1775 29.8629 36.08 29.8254 32.3825 27.6054C32.2685 27.5395 32.1392 27.5049 32.0075 27.5049C31.8758 27.5049 31.7465 27.5395 31.6325 27.6054C27.47 30.1029 27.845 29.8554 27.7475 29.9604C27.5996 30.1025 27.5111 30.2955 27.5 30.5004V35.0004C27.5 35.1305 27.5339 35.2584 27.5984 35.3715C27.6628 35.4846 27.7555 35.579 27.8675 35.6454C31.775 38.0004 31.7075 38.0004 32 38.0004C32.2925 38.0004 32.2025 38.0004 36.1325 35.6454C36.2445 35.579 36.3372 35.4846 36.4016 35.3715C36.4661 35.2584 36.5 35.1305 36.5 35.0004C36.5 30.2229 36.575 30.2679 36.2825 29.9754ZM32 29.1279L34.295 30.5004L32 31.8729L29.705 30.5004L32 29.1279ZM29 31.8279L31.25 33.1779V35.9229L29 34.5729V31.8279ZM32.75 35.9229V33.1779L35 31.8279V34.5729L32.75 35.9229Z" fill="#4686EF"/>
</g>
<defs>
<clipPath id="clip0_105_10547">
<rect width="24" height="24" fill="white" transform="translate(20 20.75)"/>
</clipPath>
</defs>
</svg>
