<svg width="64" height="65" viewBox="0 0 64 65" fill="none" xmlns="http://www.w3.org/2000/svg">
<rect y="0.25" width="64" height="64" rx="10" fill="#F9FDFF"/>
<g opacity="0.8" clip-path="url(#clip0_106_9574)">
<path d="M41.75 22.5H39.5C39.5 21.9033 39.2629 21.331 38.841 20.909C38.419 20.4871 37.8467 20.25 37.25 20.25H26.75C26.1533 20.25 25.581 20.4871 25.159 20.909C24.7371 21.331 24.5 21.9033 24.5 22.5H22.25C21.6533 22.5 21.081 22.7371 20.659 23.159C20.2371 23.581 20 24.1533 20 24.75V27.48C20.0007 29.4942 20.7827 31.4297 22.1816 32.8789C23.5805 34.3281 25.487 35.1781 27.5 35.25C28.1788 35.7638 28.9395 36.1593 29.75 36.42V38.25H28.25C27.6533 38.25 27.081 38.4871 26.659 38.909C26.2371 39.331 26 39.9033 26 40.5V42.75H25.25C25.0511 42.75 24.8603 42.829 24.7197 42.9697C24.579 43.1103 24.5 43.3011 24.5 43.5C24.5 43.6989 24.579 43.8897 24.7197 44.0303C24.8603 44.171 25.0511 44.25 25.25 44.25H29C29.1989 44.25 29.3897 44.171 29.5303 44.0303C29.671 43.8897 29.75 43.6989 29.75 43.5C29.75 43.3011 29.671 43.1103 29.5303 42.9697C29.3897 42.829 29.1989 42.75 29 42.75H27.5V40.5C27.5 40.3011 27.579 40.1103 27.7197 39.9697C27.8603 39.829 28.0511 39.75 28.25 39.75H35.75C35.9489 39.75 36.1397 39.829 36.2803 39.9697C36.421 40.1103 36.5 40.3011 36.5 40.5V42.75H32C31.8011 42.75 31.6103 42.829 31.4697 42.9697C31.329 43.1103 31.25 43.3011 31.25 43.5C31.25 43.6989 31.329 43.8897 31.4697 44.0303C31.6103 44.171 31.8011 44.25 32 44.25H38.75C38.9489 44.25 39.1397 44.171 39.2803 44.0303C39.421 43.8897 39.5 43.6989 39.5 43.5C39.5 43.3011 39.421 43.1103 39.2803 42.9697C39.1397 42.829 38.9489 42.75 38.75 42.75H38V40.5C38 39.9033 37.7629 39.331 37.341 38.909C36.919 38.4871 36.3467 38.25 35.75 38.25H34.25V36.405C35.0595 36.1489 35.8201 35.7585 36.5 35.25C38.513 35.1781 40.4195 34.3281 41.8184 32.8789C43.2173 31.4297 43.9993 29.4942 44 27.48V24.75C44 24.1533 43.7629 23.581 43.341 23.159C42.919 22.7371 42.3467 22.5 41.75 22.5ZM26 22.5C26 22.3011 26.079 22.1103 26.2197 21.9697C26.3603 21.829 26.5511 21.75 26.75 21.75H37.25C37.4489 21.75 37.6397 21.829 37.7803 21.9697C37.921 22.1103 38 22.3011 38 22.5V29.25C38 30.8413 37.3679 32.3674 36.2426 33.4926C35.1174 34.6179 33.5913 35.25 32 35.25C30.4087 35.25 28.8826 34.6179 27.7574 33.4926C26.6321 32.3674 26 30.8413 26 29.25V22.5ZM21.5 27.48V24.75C21.5 24.5511 21.579 24.3603 21.7197 24.2197C21.8603 24.079 22.0511 24 22.25 24H24.5V29.25C24.4977 30.7352 24.939 32.1873 25.7675 33.42C24.5253 32.999 23.446 32.1999 22.6807 31.1347C21.9154 30.0695 21.5026 28.7916 21.5 27.48ZM32.75 36.75V38.25H31.25V36.75H32.75ZM42.5 27.48C42.4974 28.7916 42.0846 30.0695 41.3193 31.1347C40.554 32.1999 39.4747 32.999 38.2325 33.42C39.061 32.1873 39.5023 30.7352 39.5 29.25V24H41.75C41.9489 24 42.1397 24.079 42.2803 24.2197C42.421 24.3603 42.5 24.5511 42.5 24.75V27.48Z" fill="#4686EF"/>
<path d="M36.4472 25.9954C36.3197 25.6429 36.4472 25.7779 32.3822 23.3554C32.2682 23.2895 32.1388 23.2549 32.0072 23.2549C31.8755 23.2549 31.7462 23.2895 31.6322 23.3554C27.7022 25.7104 27.7322 25.6054 27.5897 25.9354C27.4472 26.2654 27.4997 25.8604 27.4997 30.7504C27.4997 30.8805 27.5336 31.0084 27.598 31.1215C27.6625 31.2346 27.7552 31.329 27.8672 31.3954C31.7222 33.7054 31.5347 33.6004 31.6772 33.6454C31.7762 33.6992 31.887 33.7274 31.9997 33.7274C32.1123 33.7274 32.2232 33.6992 32.3222 33.6454C32.4647 33.5779 32.2772 33.6829 36.1322 31.3954C36.2441 31.329 36.3369 31.2346 36.4013 31.1215C36.4658 31.0084 36.4997 30.8805 36.4997 30.7504C36.4997 25.8529 36.4997 26.1904 36.4472 25.9954ZM31.9997 24.8779L34.2947 26.2504L31.9997 27.6229L29.7047 26.2504L31.9997 24.8779ZM28.9997 27.5779L31.2497 28.9279V31.6729L28.9997 30.3229V27.5779ZM32.7497 31.6729V28.9279L34.9997 27.5779V30.3229L32.7497 31.6729Z" fill="#4686EF"/>
</g>
<defs>
<clipPath id="clip0_106_9574">
<rect width="24" height="24" fill="white" transform="translate(20 20.25)"/>
</clipPath>
</defs>
</svg>
