<svg width="25" height="25" viewBox="0 0 25 25" fill="none" xmlns="http://www.w3.org/2000/svg">
<path fill-rule="evenodd" clip-rule="evenodd" d="M2 12.5C2 12.3011 2.07902 12.1103 2.21967 11.9696C2.36032 11.829 2.55109 11.75 2.75 11.75H20.4395L15.719 7.03097C15.5782 6.89014 15.4991 6.69913 15.4991 6.49997C15.4991 6.30081 15.5782 6.1098 15.719 5.96897C15.8598 5.82814 16.0508 5.74902 16.25 5.74902C16.4492 5.74902 16.6402 5.82814 16.781 5.96897L22.781 11.969C22.8508 12.0386 22.9063 12.1214 22.9441 12.2125C22.9819 12.3036 23.0013 12.4013 23.0013 12.5C23.0013 12.5986 22.9819 12.6963 22.9441 12.7874C22.9063 12.8785 22.8508 12.9613 22.781 13.031L16.781 19.031C16.6402 19.1718 16.4492 19.2509 16.25 19.2509C16.0508 19.2509 15.8598 19.1718 15.719 19.031C15.5782 18.8901 15.4991 18.6991 15.4991 18.5C15.4991 18.3008 15.5782 18.1098 15.719 17.969L20.4395 13.25H2.75C2.55109 13.25 2.36032 13.171 2.21967 13.0303C2.07902 12.8896 2 12.6989 2 12.5Z" fill="#F4F4F4"/>
</svg>
