<svg width="21" height="22" viewBox="0 0 21 22" fill="none" xmlns="http://www.w3.org/2000/svg">
<path d="M10.5 2.25C5.67525 2.25 1.75 6.17525 1.75 11V14.6251C1.75 15.5211 2.53487 16.25 3.5 16.25H4.375C4.60706 16.25 4.82962 16.1578 4.99372 15.9937C5.15781 15.8296 5.25 15.6071 5.25 15.375V10.8749C5.25 10.6428 5.15781 10.4203 4.99372 10.2562C4.82962 10.0921 4.60706 9.99988 4.375 9.99988H3.5805C4.067 6.61363 6.98075 4 10.5 4C14.0192 4 16.933 6.61363 17.4195 9.99988H16.625C16.3929 9.99988 16.1704 10.0921 16.0063 10.2562C15.8422 10.4203 15.75 10.6428 15.75 10.8749V16.25C15.75 17.2151 14.9651 18 14 18H12.25V17.125H8.75V19.75H14C15.9303 19.75 17.5 18.1803 17.5 16.25C18.4651 16.25 19.25 15.5211 19.25 14.6251V11C19.25 6.17525 15.3247 2.25 10.5 2.25Z" fill="#2C2C2C"/>
</svg>
