<svg width="21" height="22" viewBox="0 0 21 22" fill="none" xmlns="http://www.w3.org/2000/svg">
<path d="M17.5 5.75H14.875V4C14.875 3.03487 14.0901 2.25 13.125 2.25H7.875C6.90987 2.25 6.125 3.03487 6.125 4V5.75H3.5C2.53487 5.75 1.75 6.53487 1.75 7.5V17.125C1.75 18.0901 2.53487 18.875 3.5 18.875H17.5C18.4651 18.875 19.25 18.0901 19.25 17.125V7.5C19.25 6.53487 18.4651 5.75 17.5 5.75ZM14 7.5V17.125H7V7.5H14ZM13.125 4V5.75H7.875V4H13.125ZM3.5 7.5H5.25V17.125H3.5V7.5ZM15.75 17.125V7.5H17.5L17.5009 17.125H15.75Z" fill="#2C2C2C"/>
</svg>
