<svg width="12" height="12" viewBox="0 0 12 12" fill="none" xmlns="http://www.w3.org/2000/svg">
<path d="M11.4022 5.4022H6.5978V0.597813C6.5978 0.267652 6.33015 0 5.99999 0C5.66983 0 5.40218 0.267652 5.40218 0.597813V5.4022H0.597813C0.267652 5.4022 0 5.66985 0 6.00001C0 6.33017 0.267652 6.59782 0.597813 6.59782H5.40218V11.4022C5.40218 11.7323 5.66983 12 5.99999 12C6.33015 12 6.5978 11.7323 6.5978 11.4022V6.59782H11.4022C11.7323 6.59782 12 6.33017 12 6.00001C12 5.66985 11.7323 5.4022 11.4022 5.4022Z" fill="white"/>
</svg>
