<svg width="18" height="18" viewBox="0 0 18 18" fill="none" xmlns="http://www.w3.org/2000/svg">
<path d="M9 0C4.02991 0 0 4.02991 0 9C0 13.9701 4.02991 18 9 18C13.9701 18 18 13.9701 18 9C18 4.02991 13.9701 0 9 0ZM11.933 13.2188C11.933 13.3071 11.8607 13.3795 11.7723 13.3795H6.27188C6.18348 13.3795 6.11116 13.3071 6.11116 13.2188V12.4453C6.11116 12.371 6.16138 12.3067 6.23371 12.2886C7.11763 12.0696 7.69621 11.3042 7.69621 10.3962C7.69621 10.1009 7.64598 9.80558 7.57768 9.50826H6.22768C6.13929 9.50826 6.06696 9.43594 6.06696 9.34754V8.74487C6.06696 8.65647 6.13929 8.58415 6.22768 8.58415H7.30647C7.14978 8.07991 7.01317 7.56563 7.01317 7.03527C7.01317 5.5125 8.1904 4.61853 10.0567 4.61853C10.5891 4.61853 11.0893 4.72902 11.469 4.87366C11.5312 4.89777 11.5734 4.95804 11.5734 5.02433V5.81786C11.5735 5.84351 11.5675 5.86881 11.5558 5.89165C11.5442 5.91449 11.5272 5.93421 11.5064 5.94916C11.4855 5.9641 11.4614 5.97384 11.436 5.97756C11.4106 5.98128 11.3847 5.97887 11.3605 5.97054C11.0009 5.84196 10.577 5.7596 10.1471 5.7596C9.07634 5.7596 8.3933 6.29397 8.3933 7.16987C8.3933 7.66607 8.51786 8.13214 8.6625 8.58616H10.9125C11.0009 8.58616 11.0732 8.65848 11.0732 8.74687V9.34955C11.0732 9.43795 11.0009 9.51027 10.9125 9.51027H8.9317C8.99397 9.77545 9.03817 10.0507 9.03817 10.3339C9.03817 11.1516 8.7067 11.8185 8.15625 12.1641V12.2585H11.7723C11.8607 12.2585 11.933 12.3308 11.933 12.4192V13.2188Z" fill="#464A53"/>
</svg>
