<svg width="14" height="14" viewBox="0 0 14 14" fill="none" xmlns="http://www.w3.org/2000/svg">
<path d="M1.38024 0.197012L1.42618 0.238593L7.10268 5.83398L12.5703 0.444854C12.723 0.292965 12.9295 0.205533 13.1464 0.201045C13.3632 0.196557 13.5733 0.275366 13.7323 0.420807C13.8912 0.566248 13.9865 0.766919 13.9981 0.980387C14.0097 1.19386 13.9365 1.40339 13.7942 1.56467L13.7524 1.60996L8.28393 6.99826L13.752 12.3874C13.9063 12.5377 13.9951 12.7413 13.9998 12.9551C14.0045 13.1689 13.9246 13.3761 13.7771 13.5329C13.6295 13.6896 13.4259 13.7837 13.2092 13.7951C12.9926 13.8065 12.78 13.7344 12.6163 13.5941L12.5703 13.5521L7.10268 8.16296L1.42618 13.7588C1.27334 13.9094 1.06718 13.9959 0.851042 13.9999C0.6349 14.0038 0.425604 13.9251 0.267143 13.7802C0.108681 13.6352 0.013394 13.4354 0.00130774 13.2226C-0.0107786 13.0099 0.0612771 12.8008 0.202331 12.6394L0.244518 12.5941L5.92144 6.99826L0.244936 1.40329C0.0931276 1.25245 0.00634712 1.04962 0.00273581 0.837192C-0.00087549 0.624762 0.0789618 0.419178 0.225558 0.263417C0.372155 0.107656 0.574162 0.0137746 0.789352 0.00139915C1.00454 -0.0109763 1.21626 0.0591119 1.38024 0.197012Z" fill="#16192C"/>
</svg>
