<svg width="14" height="14" viewBox="0 0 14 14" fill="none" xmlns="http://www.w3.org/2000/svg">
<path d="M12.3956 11.3332H10.8384C10.4702 11.3332 10.1718 11.035 10.1718 10.6666C10.1718 10.2982 10.4704 10 10.8384 10H12.3956C12.5451 10 12.6664 9.87833 12.6664 9.72922V1.60417C12.6664 1.45505 12.5449 1.33339 12.3956 1.33339H4.27075C4.12129 1.33339 3.99997 1.45505 3.99997 1.60417V3.14378C3.99997 3.51233 3.7014 3.81039 3.33336 3.81039C2.96532 3.81039 2.66675 3.51216 2.66675 3.14378V1.60417C2.66675 0.719478 3.3864 0 4.27092 0H12.3958C13.2802 0 14 0.719309 14 1.60417V9.72905C13.9998 10.6137 13.28 11.3332 12.3956 11.3332Z" fill="#0E4D5D"/>
<path d="M9.72905 14H1.60417C0.719817 14 0 13.2807 0 12.3958V4.27092C0 3.38623 0.719647 2.66675 1.60417 2.66675H9.72905C10.6134 2.66675 11.3332 3.38606 11.3332 4.27092V12.3958C11.333 13.2807 10.6134 14 9.72905 14ZM1.60417 4.00014C1.45471 4.00014 1.33339 4.1218 1.33339 4.27092V12.3958C1.33339 12.5449 1.45488 12.6666 1.60417 12.6666H9.72905C9.8785 12.6666 9.99983 12.5449 9.99983 12.3958V4.27092C9.99983 4.1218 9.87833 4.00014 9.72905 4.00014H1.60417Z" fill="#0E4D5D"/>
</svg>
