<svg width="90" height="54" viewBox="0 0 90 54" fill="none" xmlns="http://www.w3.org/2000/svg">
<path d="M41.0015 6.67188H37.0544C34.8172 11.9231 31.2301 18.8112 25.4958 25.8957C18.5658 34.4469 11.2115 39.9338 5.92725 43.2469V47.6207C11.8801 43.9802 20.3144 37.8516 28.2087 28.1088C34.6115 20.2124 38.5587 12.4993 41.0144 6.68497L41.0015 6.67188Z" fill="white" stroke="white" stroke-width="0.9" stroke-miterlimit="10"/>
<path d="M40.0116 48.7596H44.0744C37.9544 41.3215 31.8344 33.8834 25.7144 26.4453C25.213 27.5977 24.6987 28.7501 24.1973 29.9025C29.4687 36.1882 34.7401 42.4739 40.0116 48.7596Z" fill="white" stroke="white" stroke-width="0.9" stroke-miterlimit="10"/>
<path d="M8.85867 14.8946C10.5416 14.8946 11.9058 13.5051 11.9058 11.7911C11.9058 10.077 10.5416 8.6875 8.85867 8.6875C7.17578 8.6875 5.81152 10.077 5.81152 11.7911C5.81152 13.5051 7.17578 14.8946 8.85867 14.8946Z" fill="white" stroke="white" stroke-width="0.9" stroke-miterlimit="10"/>
<path d="M8.85867 30.3751C10.5416 30.3751 11.9058 28.9856 11.9058 27.2715C11.9058 25.5575 10.5416 24.168 8.85867 24.168C7.17578 24.168 5.81152 25.5575 5.81152 27.2715C5.81152 28.9856 7.17578 30.3751 8.85867 30.3751Z" fill="white" stroke="white" stroke-width="0.9" stroke-miterlimit="10"/>
<path d="M65.9444 49.6254C62.8844 49.6254 60.0687 49.0362 57.523 47.8707C54.9644 46.7052 52.7402 45.0814 50.8373 43.0124C48.9344 40.9433 47.4559 38.5731 46.4016 35.9147C45.3473 33.2564 44.833 30.4147 44.833 27.429C44.833 23.3957 45.7202 19.729 47.4944 16.4028C49.2687 13.0766 51.7373 10.4445 54.913 8.48021C58.0887 6.51592 61.7402 5.54688 65.8802 5.54688C69.8016 5.54688 73.273 6.46354 76.2816 8.29688C79.2902 10.1302 81.5273 12.6052 82.9673 15.7219L77.6444 17.4504C76.4616 15.2635 74.803 13.5481 72.6816 12.3171C70.5602 11.0862 68.2073 10.4707 65.623 10.4707C62.833 10.4707 60.2744 11.204 57.9602 12.6707C55.6459 14.1374 53.8073 16.154 52.4444 18.7076C51.0687 21.2612 50.3873 24.1683 50.3873 27.429C50.3873 30.6897 51.0816 33.5445 52.483 36.1504C53.8844 38.7564 55.7359 40.8385 58.0502 42.3838C60.3644 43.929 62.9102 44.7016 65.713 44.7016C67.5387 44.7016 69.3002 44.3743 70.9973 43.7195C72.6944 43.0647 74.173 42.1743 75.433 41.0481C76.693 39.9219 77.5416 38.704 77.9787 37.3945L83.3787 39.0314C82.6202 41.0612 81.373 42.8814 79.6244 44.4921C77.8759 46.1028 75.8316 47.36 73.4916 48.2635C71.1516 49.1671 68.6444 49.6124 65.9573 49.6124L65.9444 49.6254Z" fill="white"/>
</svg>
