<svg width="171" height="55" viewBox="0 0 171 55" fill="none" xmlns="http://www.w3.org/2000/svg">
<path d="M27.763 54.5473C42.4685 54.5473 54.3896 42.5761 54.3896 27.8088C54.3896 13.0415 42.4685 1.07031 27.763 1.07031C13.0576 1.07031 1.13647 13.0415 1.13647 27.8088C1.13647 42.5761 13.0576 54.5473 27.763 54.5473Z" fill="url(#paint0_radial_221_33875)"/>
<path d="M27.763 54.5473C42.4685 54.5473 54.3896 42.5761 54.3896 27.8088C54.3896 13.0415 42.4685 1.07031 27.763 1.07031C13.0576 1.07031 1.13647 13.0415 1.13647 27.8088C1.13647 42.5761 13.0576 54.5473 27.763 54.5473Z" fill="url(#paint1_radial_221_33875)"/>
<path d="M27.7629 51.702C40.904 51.702 51.5569 41.0043 51.5569 27.808C51.5569 14.6118 40.904 3.91406 27.7629 3.91406C14.6219 3.91406 3.96899 14.6118 3.96899 27.808C3.96899 41.0043 14.6219 51.702 27.7629 51.702Z" fill="url(#paint2_radial_221_33875)"/>
<path d="M16.4841 15.8633V39.2918H26.7845V15.8633H16.4841ZM24.673 37.0679H18.6472V17.9837H24.673V37.0679Z" fill="url(#paint3_radial_221_33875)"/>
<path d="M28.6902 15.8633V39.2918H38.9906V15.8633H28.6902ZM36.879 36.2921H30.8533V18.8112H36.879V36.2921Z" fill="url(#paint4_radial_221_33875)"/>
<path d="M27.7631 32.4129C30.2946 32.4129 32.3468 30.3521 32.3468 27.81C32.3468 25.2678 30.2946 23.207 27.7631 23.207C25.2316 23.207 23.1794 25.2678 23.1794 27.81C23.1794 30.3521 25.2316 32.4129 27.7631 32.4129Z" fill="url(#paint5_radial_221_33875)"/>
<path d="M27.763 54.5473C42.4685 54.5473 54.3896 42.5761 54.3896 27.8088C54.3896 13.0415 42.4685 1.07031 27.763 1.07031C13.0576 1.07031 1.13647 13.0415 1.13647 27.8088C1.13647 42.5761 13.0576 54.5473 27.763 54.5473Z" fill="url(#paint6_radial_221_33875)"/>
<path d="M27.7629 51.702C40.904 51.702 51.5569 41.0043 51.5569 27.808C51.5569 14.6118 40.904 3.91406 27.7629 3.91406C14.6219 3.91406 3.96899 14.6118 3.96899 27.808C3.96899 41.0043 14.6219 51.702 27.7629 51.702Z" fill="url(#paint7_radial_221_33875)" stroke="white" stroke-miterlimit="10"/>
<path d="M16.4841 15.8633V39.2918H26.7845V15.8633H16.4841ZM24.673 37.0679H18.6472V17.9837H24.673V37.0679Z" fill="url(#paint8_radial_221_33875)"/>
<path d="M28.6902 15.8633V39.2918H38.9906V15.8633H28.6902ZM36.879 36.2921H30.8533V18.8112H36.879V36.2921Z" fill="url(#paint9_radial_221_33875)"/>
<path d="M27.7631 32.4129C30.2946 32.4129 32.3468 30.3521 32.3468 27.81C32.3468 25.2678 30.2946 23.207 27.7631 23.207C25.2316 23.207 23.1794 25.2678 23.1794 27.81C23.1794 30.3521 25.2316 32.4129 27.7631 32.4129Z" fill="url(#paint10_radial_221_33875)"/>
<path d="M15.6602 15.2422V40.3774H26.7846V15.2422H15.6602ZM24.4155 38.0501H17.9262V17.5178H24.4155V38.0501Z" fill="white"/>
<path d="M28.7932 15.2422V40.3774H39.8662V15.2422H28.7932ZM37.5486 38.0501H31.1108V17.5178H37.6001L37.5486 38.0501Z" fill="white"/>
<path d="M77.3596 18.6016V39.4959H72.9819V29.4625L74.939 30.8071H63.454L65.4111 29.5142V39.4959H61.0334V18.6016H65.4111V28.6867L63.454 27.3937H74.939L72.9819 28.6867V18.6016H77.3596Z" fill="white"/>
<path d="M106.767 39.8074C105.119 39.8074 103.677 39.4971 102.441 38.8248C101.205 38.1524 100.226 37.2215 99.5569 36.032C98.8874 34.8425 98.5269 33.4461 98.5269 31.8945C98.5269 30.3429 98.8874 28.9465 99.5569 27.8087C100.226 26.6709 101.205 25.74 102.441 25.1194C103.677 24.4987 105.119 24.1367 106.767 24.1367C108.003 24.1367 109.085 24.3436 110.063 24.7056C110.99 25.0677 111.814 25.5331 112.432 26.1537C113.05 26.7744 113.565 27.395 113.874 28.119C114.183 28.8431 114.389 29.5154 114.389 30.2395V30.2912V30.3429H110.063C110.063 30.2912 110.063 30.2395 110.063 30.1878C110.063 30.1361 110.063 30.0844 110.012 30.0326C109.96 29.6189 109.754 29.2569 109.497 28.8948C109.239 28.5328 108.879 28.2742 108.415 28.0156C107.952 27.8087 107.385 27.7053 106.716 27.7053C105.995 27.7053 105.325 27.8605 104.759 28.1708C104.192 28.4811 103.729 28.9465 103.42 29.6189C103.111 30.2395 102.905 31.0153 102.905 31.9462C102.905 32.8772 103.059 33.6529 103.42 34.2736C103.729 34.9459 104.192 35.4114 104.759 35.7734C105.325 36.1354 105.995 36.2906 106.716 36.2906C107.437 36.2906 108.055 36.1871 108.518 35.9285C108.982 35.7217 109.342 35.4114 109.6 34.9976C109.857 34.5839 109.96 34.1701 110.012 33.7046H114.338C114.338 34.4287 114.183 35.101 113.874 35.8251C113.565 36.5492 113.05 37.2215 112.432 37.7904C111.814 38.3593 110.99 38.8765 110.063 39.2385C109.136 39.6523 108.003 39.8074 106.767 39.8074Z" fill="white"/>
<path d="M117.119 39.4959V18.6016H123.814C125.205 18.6016 126.493 18.8602 127.626 19.3773C128.759 19.8945 129.737 20.6186 130.561 21.4978C131.385 22.4287 132.003 23.5148 132.467 24.8078C132.93 26.1008 133.136 27.4972 133.136 29.0487C133.136 30.6003 132.93 31.9967 132.467 33.2896C132.003 34.5826 131.385 35.6687 130.561 36.5996C129.737 37.5306 128.759 38.2546 127.626 38.7718C126.493 39.289 125.205 39.5476 123.814 39.5476L117.119 39.4959ZM121.497 38.1512L119.54 36.0307H123.299C124.329 36.0307 125.256 35.7204 126.08 35.1515C126.905 34.5826 127.574 33.7551 128.038 32.7207C128.501 31.6346 128.759 30.3934 128.759 28.9453C128.759 27.4972 128.501 26.2042 128.038 25.1698C127.574 24.1354 126.905 23.308 126.08 22.739C125.256 22.1701 124.329 21.9116 123.299 21.9116H119.54L121.497 19.7911V38.1512Z" fill="white"/>
<path d="M141.068 39.8056C139.986 39.8056 139.007 39.6504 138.132 39.2884C137.256 38.9263 136.638 38.4092 136.123 37.7885C135.66 37.1162 135.402 36.3404 135.402 35.3578C135.402 34.2717 135.711 33.4442 136.278 32.7718C136.844 32.0995 137.617 31.5823 138.595 31.2203C139.574 30.8583 140.604 30.6514 141.737 30.4962C143.385 30.3411 144.518 30.1859 145.136 30.0825C145.754 29.9273 146.063 29.7204 146.063 29.4101C146.063 29.4101 146.063 29.4101 146.063 29.3584C146.063 28.7895 145.806 28.3758 145.291 28.0655C144.776 27.7551 144.003 27.6 143.076 27.6C142.046 27.6 141.325 27.8069 140.759 28.1689C140.244 28.5309 139.986 29.0998 139.986 29.8239H135.66C135.66 28.6344 135.969 27.6 136.638 26.7725C137.308 25.945 138.183 25.3244 139.317 24.8589C140.45 24.4452 141.686 24.2383 143.128 24.2383C144.467 24.2383 145.651 24.4452 146.784 24.8589C147.917 25.2727 148.793 25.8416 149.462 26.6691C150.132 27.4965 150.492 28.4792 150.492 29.7204C150.492 29.9273 150.492 30.1342 150.492 30.2893C150.492 30.4962 150.492 30.7031 150.492 30.8583V36.1853C150.492 36.5473 150.492 36.961 150.544 37.2714C150.544 37.6334 150.647 37.9437 150.698 38.254C150.801 38.5643 150.904 38.8746 151.059 39.0815C151.213 39.2884 151.316 39.4435 151.419 39.547H147.093C147.042 39.4953 146.939 39.3401 146.784 39.1332C146.63 38.9263 146.527 38.6678 146.424 38.4092C146.321 38.0988 146.218 37.7368 146.166 37.4265C146.115 37.1162 146.063 36.7024 146.063 36.237L146.99 36.8576C146.733 37.4782 146.321 37.9954 145.703 38.4609C145.136 38.9263 144.415 39.2367 143.591 39.4953C142.87 39.6504 141.995 39.8056 141.068 39.8056ZM142.252 36.4956C142.922 36.4956 143.591 36.3921 144.158 36.1335C144.776 35.875 145.239 35.5129 145.6 34.944C145.96 34.4268 146.166 33.7028 146.166 32.8236V31.3237L147.248 32.4098C146.63 32.6167 145.909 32.8236 145.085 32.9787C144.261 33.1339 143.437 33.2373 142.664 33.3407C141.686 33.4442 140.965 33.5993 140.501 33.8062C140.038 34.0131 139.78 34.4268 139.78 34.9957C139.78 35.5129 139.986 35.9267 140.398 36.1853C140.862 36.3921 141.48 36.4956 142.252 36.4956Z" fill="white"/>
<path d="M88.1235 24.1367C83.7973 24.1367 80.2437 27.7053 80.2437 32.0497C80.2437 36.394 83.7973 39.9626 88.1235 39.9626C92.4496 39.9626 96.0033 36.394 96.0033 32.0497C96.0033 27.7053 92.5011 24.1367 88.1235 24.1367ZM88.1235 35.9803C85.9604 35.9803 84.2093 34.2218 84.2093 32.0497C84.2093 29.8775 85.9604 28.119 88.1235 28.119C90.2866 28.119 92.0376 29.8775 92.0376 32.0497C92.0891 34.2218 90.3381 35.9803 88.1235 35.9803Z" fill="white"/>
<path d="M161.771 24.1367C157.445 24.1367 153.892 27.7053 153.892 32.0497C153.892 36.394 157.445 39.9626 161.771 39.9626C166.098 39.9626 169.651 36.394 169.651 32.0497C169.651 27.7053 166.098 24.1367 161.771 24.1367ZM161.771 35.9803C159.608 35.9803 157.857 34.2218 157.857 32.0497C157.857 29.8775 159.608 28.119 161.771 28.119C163.935 28.119 165.686 29.8775 165.686 32.0497C165.686 34.2218 163.935 35.9803 161.771 35.9803Z" fill="white"/>
<path d="M27.763 20.5664C23.7974 20.5664 20.5527 23.8247 20.5527 27.807C20.5527 31.7893 23.7974 35.0476 27.763 35.0476C31.7287 35.0476 34.9733 31.7893 34.9733 27.807C34.9733 23.8247 31.7287 20.5664 27.763 20.5664ZM27.763 31.4273C25.8059 31.4273 24.1579 29.824 24.1579 27.807C24.1579 25.8417 25.7544 24.1867 27.763 24.1867C29.7201 24.1867 31.3682 25.79 31.3682 27.807C31.3682 29.7723 29.7201 31.4273 27.763 31.4273Z" fill="white"/>
<path d="M27.7631 32.4617C30.3231 32.4617 32.3983 30.3777 32.3983 27.807C32.3983 25.2363 30.3231 23.1523 27.7631 23.1523C25.2032 23.1523 23.1279 25.2363 23.1279 27.807C23.1279 30.3777 25.2032 32.4617 27.7631 32.4617Z" fill="url(#paint11_radial_221_33875)"/>
<defs>
<radialGradient id="paint0_radial_221_33875" cx="0" cy="0" r="1" gradientUnits="userSpaceOnUse" gradientTransform="translate(27.763 27.8088) scale(26.6266 26.7385)">
<stop offset="0.2009" stop-color="#114080"/>
<stop offset="0.5844" stop-color="#114080"/>
<stop offset="1" stop-color="#123A6D"/>
</radialGradient>
<radialGradient id="paint1_radial_221_33875" cx="0" cy="0" r="1" gradientUnits="userSpaceOnUse" gradientTransform="translate(27.763 27.8088) scale(26.6266 26.7385)">
<stop offset="0.2009" stop-color="#114080"/>
<stop offset="0.5844" stop-color="#114080"/>
<stop offset="1" stop-color="#123A6D"/>
</radialGradient>
<radialGradient id="paint2_radial_221_33875" cx="0" cy="0" r="1" gradientUnits="userSpaceOnUse" gradientTransform="translate(27.7629 27.808) scale(23.794 23.894)">
<stop offset="0.2009" stop-color="#114080"/>
<stop offset="0.5844" stop-color="#114080"/>
<stop offset="1" stop-color="#123A6D"/>
</radialGradient>
<radialGradient id="paint3_radial_221_33875" cx="0" cy="0" r="1" gradientUnits="userSpaceOnUse" gradientTransform="translate(21.6495 27.5452) scale(9.0141 9.05199)">
<stop offset="0.2009" stop-color="#114080"/>
<stop offset="0.5844" stop-color="#114080"/>
<stop offset="1" stop-color="#123A6D"/>
</radialGradient>
<radialGradient id="paint4_radial_221_33875" cx="0" cy="0" r="1" gradientUnits="userSpaceOnUse" gradientTransform="translate(33.8675 27.5452) scale(9.0141 9.05199)">
<stop offset="0.2009" stop-color="#114080"/>
<stop offset="0.5844" stop-color="#114080"/>
<stop offset="1" stop-color="#123A6D"/>
</radialGradient>
<radialGradient id="paint5_radial_221_33875" cx="0" cy="0" r="1" gradientUnits="userSpaceOnUse" gradientTransform="translate(27.7631 27.81) scale(4.57076 4.58997)">
<stop offset="0.2009" stop-color="#114080"/>
<stop offset="0.5844" stop-color="#114080"/>
<stop offset="1" stop-color="#123A6D"/>
</radialGradient>
<radialGradient id="paint6_radial_221_33875" cx="0" cy="0" r="1" gradientUnits="userSpaceOnUse" gradientTransform="translate(27.763 27.8088) scale(26.6266 26.7385)">
<stop offset="0.2009" stop-color="#114080"/>
<stop offset="0.5844" stop-color="#114080"/>
<stop offset="1" stop-color="#123A6D"/>
</radialGradient>
<radialGradient id="paint7_radial_221_33875" cx="0" cy="0" r="1" gradientUnits="userSpaceOnUse" gradientTransform="translate(27.7629 27.808) scale(23.794 23.894)">
<stop offset="0.2009" stop-color="#114080"/>
<stop offset="0.5844" stop-color="#114080"/>
<stop offset="1" stop-color="#123A6D"/>
</radialGradient>
<radialGradient id="paint8_radial_221_33875" cx="0" cy="0" r="1" gradientUnits="userSpaceOnUse" gradientTransform="translate(21.6495 27.5452) scale(9.0141 9.05199)">
<stop offset="0.2009" stop-color="#114080"/>
<stop offset="0.5844" stop-color="#114080"/>
<stop offset="1" stop-color="#123A6D"/>
</radialGradient>
<radialGradient id="paint9_radial_221_33875" cx="0" cy="0" r="1" gradientUnits="userSpaceOnUse" gradientTransform="translate(33.8675 27.5452) scale(9.0141 9.05199)">
<stop offset="0.2009" stop-color="#114080"/>
<stop offset="0.5844" stop-color="#114080"/>
<stop offset="1" stop-color="#123A6D"/>
</radialGradient>
<radialGradient id="paint10_radial_221_33875" cx="0" cy="0" r="1" gradientUnits="userSpaceOnUse" gradientTransform="translate(27.7631 27.81) scale(4.57076 4.58997)">
<stop offset="0.2009" stop-color="#114080"/>
<stop offset="0.5844" stop-color="#114080"/>
<stop offset="1" stop-color="#123A6D"/>
</radialGradient>
<radialGradient id="paint11_radial_221_33875" cx="0" cy="0" r="1" gradientUnits="userSpaceOnUse" gradientTransform="translate(27.7631 27.807) scale(4.62998 4.64945)">
<stop offset="0.2009" stop-color="#114080"/>
<stop offset="0.5844" stop-color="#114080"/>
<stop offset="1" stop-color="#123A6D"/>
</radialGradient>
</defs>
</svg>
