<svg width="101" height="58" viewBox="0 0 101 58" fill="none" xmlns="http://www.w3.org/2000/svg">
<path d="M46.1591 6.97168H41.7155C39.197 12.7243 35.1588 20.2702 28.7033 28.0313C20.9018 37.3991 12.6227 43.41 6.67383 47.0395V51.8309C13.3753 47.8428 22.8703 41.129 31.7574 30.4557C38.9655 21.8052 43.409 13.3556 46.1735 6.98603L46.1591 6.97168Z" fill="#0C4FAD" stroke="#0C4FAD" stroke-width="0.9" stroke-miterlimit="10"/>
<path d="M45.0433 53.079H49.6171C42.7275 44.9306 35.8378 36.7822 28.9482 28.6338C28.3837 29.8962 27.8047 31.1586 27.2402 32.4211C33.1746 39.3071 39.109 46.193 45.0433 53.079Z" fill="#0C4FAD" stroke="#0C4FAD" stroke-width="0.9" stroke-miterlimit="10"/>
<path d="M9.97332 15.9806C11.8679 15.9806 13.4037 14.4584 13.4037 12.5806C13.4037 10.7029 11.8679 9.18066 9.97332 9.18066C8.07879 9.18066 6.54297 10.7029 6.54297 12.5806C6.54297 14.4584 8.07879 15.9806 9.97332 15.9806Z" fill="#0C4FAD" stroke="#0C4FAD" stroke-width="0.9" stroke-miterlimit="10"/>
<path d="M9.97332 32.9376C11.8679 32.9376 13.4037 31.4154 13.4037 29.5376C13.4037 27.6599 11.8679 26.1377 9.97332 26.1377C8.07879 26.1377 6.54297 27.6599 6.54297 29.5376C6.54297 31.4154 8.07879 32.9376 9.97332 32.9376Z" fill="#0C4FAD" stroke="#0C4FAD" stroke-width="0.9" stroke-miterlimit="10"/>
<path d="M74.2371 54.0262C70.7923 54.0262 67.6225 53.3806 64.7566 52.1038C61.8763 50.8271 59.3723 49.0482 57.2301 46.7816C55.0879 44.5149 53.4234 41.9183 52.2365 39.0061C51.0497 36.094 50.4707 32.9809 50.4707 29.7101C50.4707 25.2916 51.4694 21.2748 53.4668 17.6309C55.4643 13.9871 58.2433 11.1036 61.8184 8.95174C65.3935 6.79987 69.5041 5.73828 74.1647 5.73828C78.5793 5.73828 82.4873 6.74249 85.8743 8.7509C89.2612 10.7593 91.7797 13.4707 93.4008 16.885L87.4085 18.7786C86.0769 16.3829 84.2097 14.5036 81.8215 13.1551C79.4333 11.8065 76.7845 11.1323 73.8753 11.1323C70.7344 11.1323 67.8541 11.9357 65.2487 13.5424C62.6434 15.1491 60.5736 17.3584 59.0393 20.1558C57.4906 22.9532 56.7235 26.138 56.7235 29.7101C56.7235 33.2822 57.5051 36.4096 59.0828 39.2644C60.6604 42.1192 62.7447 44.4002 65.35 46.093C67.9554 47.7858 70.8212 48.6322 73.9766 48.6322C76.0319 48.6322 78.0148 48.2735 79.9254 47.5562C81.836 46.8389 83.5005 45.8634 84.919 44.6297C86.3374 43.396 87.2927 42.0618 87.7848 40.6272L93.8639 42.4204C93.01 44.644 91.606 46.6381 89.6375 48.4026C87.669 50.1672 85.3677 51.5444 82.7334 52.5342C80.0991 53.5241 77.2767 54.0118 74.2516 54.0118L74.2371 54.0262Z" fill="#0C4FAD"/>
</svg>
