<svg width="12" height="12" viewBox="0 0 12 12" fill="none" xmlns="http://www.w3.org/2000/svg">
<circle cx="6" cy="6" r="6" fill="#696977"/>
<path d="M9.04084 7.4876L9.05001 7.47604L9.05545 7.46232C9.10005 7.34989 9.10002 7.23888 9.1 7.14789L9.1 7.14182V7.12271L9.09296 7.10495C9.04202 6.97652 8.93286 6.9 8.8125 6.9H3.1875C3.10053 6.9 3.02487 6.93774 2.97322 7.00285C2.92314 7.06598 2.9 7.14873 2.9 7.23636C2.9 7.324 2.92314 7.40674 2.97322 7.46987C3.02487 7.53499 3.10053 7.57273 3.1875 7.57273H8.15553L6.93416 9.1124C6.83714 9.2347 6.83073 9.41141 6.91494 9.54089C6.91841 9.56508 6.92575 9.58838 6.93804 9.60982C6.95664 9.64229 6.98283 9.66394 7.00966 9.67747C7.05506 9.70036 7.10432 9.7001 7.12225 9.70001C7.12327 9.7 7.12419 9.7 7.125 9.7L7.12669 9.7C7.14535 9.70001 7.18215 9.70003 7.22056 9.69195C7.25963 9.68375 7.314 9.66447 7.35334 9.61487L9.04084 7.4876Z" fill="white" stroke="white" strokeWidth="0.2"/>
<path d="M8.8125 5.0243H3.84367L5.06603 3.47371C5.16966 3.34226 5.16966 3.14836 5.06603 3.01691C4.95464 2.87561 4.78309 2.87598 4.67144 2.9468L4.65703 2.95594L4.64647 2.96934L2.95897 5.10997L2.94986 5.12152L2.94447 5.1352C2.89995 5.24814 2.89998 5.35965 2.9 5.45123C2.9 5.45326 2.9 5.45528 2.9 5.45729V5.47629L2.90697 5.49396C2.95774 5.62278 3.06676 5.7 3.1875 5.7H8.8125C8.89972 5.7 8.97541 5.66191 9.02697 5.5965C9.07693 5.53312 9.1 5.45009 9.1 5.36215C9.1 5.27421 9.07693 5.19118 9.02697 5.1278C8.97541 5.0624 8.89972 5.0243 8.8125 5.0243Z" fill="white" stroke="white" strokeWidth="0.2"/>
</svg>
