<svg width="105" height="40" viewBox="0 0 105 40" fill="none" xmlns="http://www.w3.org/2000/svg">
<path d="M40 20C40 8.9543 31.0457 0 20 0C8.9543 0 0 8.9543 0 20C0 31.0457 8.9543 40 20 40C31.0457 40 40 31.0457 40 20Z" fill="url(#paint0_linear_123_51)"/>
<path d="M15.963 29.707H10.906V10.912H16.114V15.637C15.7299 15.7499 15.3996 15.9981 15.1842 16.3356C14.9688 16.673 14.8827 17.0771 14.942 17.473C15.0012 17.869 15.2018 18.2302 15.5066 18.4898C15.8114 18.7494 16.1998 18.89 16.6002 18.8856C17.0005 18.8811 17.3857 18.7319 17.6847 18.4656C17.9836 18.1993 18.1761 17.8337 18.2265 17.4366C18.277 17.0394 18.182 16.6373 17.9591 16.3047C17.7362 15.9721 17.4005 15.7314 17.014 15.627V10H10V30.474H16.865V23.897H21.333V22.985H15.959L15.964 29.707H15.963ZM17.538 17.232C17.5369 17.3574 17.5112 17.4814 17.4622 17.5969C17.4133 17.7123 17.3421 17.817 17.2526 17.9049C17.1632 17.9929 17.0573 18.0623 16.9411 18.1094C16.8248 18.1564 16.7004 18.1801 16.575 18.179C16.4496 18.1779 16.3256 18.1522 16.2101 18.1032C16.0947 18.0543 15.99 17.9831 15.9021 17.8936C15.8141 17.8042 15.7447 17.6983 15.6976 17.5821C15.6506 17.4658 15.6269 17.3414 15.628 17.216C15.6301 16.9627 15.7328 16.7207 15.9134 16.5431C16.094 16.3655 16.3377 16.2669 16.591 16.269C16.8443 16.2711 17.0863 16.3738 17.2639 16.5544C17.4415 16.735 17.5401 16.9787 17.538 17.232Z" fill="white"/>
<path d="M23.4832 10V16.722L18.8652 16.704V17.616L24.3892 17.633V10.911H29.4452V29.584H24.0832V25.029C24.4673 24.9159 24.7974 24.6678 25.0128 24.3303C25.2281 23.9928 25.314 23.5888 25.2547 23.1929C25.1954 22.7969 24.9949 22.4359 24.6901 22.1763C24.3853 21.9167 23.9969 21.7761 23.5966 21.7806C23.1963 21.785 22.8111 21.9342 22.5122 22.2004C22.2133 22.4667 22.0208 22.8322 21.9703 23.2293C21.9198 23.6264 22.0147 24.0284 22.2374 24.3611C22.4602 24.6937 22.7958 24.9345 23.1822 25.039V30.497H30.3522V10H23.4832ZM22.6532 23.432C22.6543 23.3066 22.68 23.1826 22.729 23.0671C22.778 22.9517 22.8492 22.847 22.9386 22.7591C23.028 22.6711 23.1339 22.6017 23.2502 22.5546C23.3664 22.5076 23.4908 22.4839 23.6162 22.485C23.7416 22.4861 23.8656 22.5118 23.9811 22.5608C24.0966 22.6097 24.2012 22.6809 24.2892 22.7704C24.3771 22.8598 24.4466 22.9657 24.4936 23.0819C24.5406 23.1982 24.5643 23.3226 24.5632 23.448C24.5611 23.7013 24.4585 23.9433 24.2779 24.1209C24.0973 24.2985 23.8535 24.3971 23.6002 24.395C23.347 24.3929 23.1049 24.2902 22.9273 24.1096C22.7497 23.929 22.6511 23.6853 22.6532 23.432Z" fill="white"/>
<path d="M50 9.56055H52.321V18.6785H64.171V9.56055H66.492V30.0895H64.171V20.8485H52.321V30.0885H50V9.56155V9.56055ZM71.556 22.5805V22.5225C71.5803 20.4473 72.4198 18.4649 73.8932 17.0033C75.3665 15.5417 77.3556 14.7181 79.431 14.7103C81.5063 14.7026 83.5015 15.5113 84.9857 16.9619C86.4699 18.4125 87.3242 20.3886 87.364 22.4635V22.5235C87.37 23.5675 87.1683 24.6023 86.7706 25.5675C86.373 26.5328 85.7872 27.4094 85.0476 28.1461C84.3079 28.8829 83.4291 29.4652 82.4623 29.8591C81.4955 30.253 80.4599 30.4506 79.416 30.4405C78.3803 30.453 77.3527 30.2582 76.3934 29.8677C75.4342 29.4771 74.5627 28.8986 73.8303 28.1662C73.098 27.4338 72.5195 26.5624 72.1289 25.6031C71.7383 24.6439 71.5435 23.6162 71.556 22.5805V22.5815V22.5805ZM85.046 22.5805V22.5225C85.0708 21.7625 84.9442 21.0052 84.6737 20.2945C84.4032 19.5838 83.9942 18.9339 83.4703 18.3827C82.9465 17.8315 82.3183 17.3899 81.6223 17.0836C80.9263 16.7774 80.1763 16.6125 79.416 16.5985C78.6623 16.6047 77.9175 16.763 77.2265 17.0641C76.5355 17.3652 75.9125 17.8028 75.3948 18.3506C74.8771 18.8985 74.4754 19.5453 74.2139 20.2522C73.9524 20.9592 73.8365 21.7117 73.873 22.4645V22.5245C73.8459 23.2814 73.9701 24.036 74.2384 24.7442C74.5067 25.4524 74.9136 26.0999 75.4353 26.6489C75.9571 27.1978 76.5831 27.6371 77.2768 27.9409C77.9704 28.2448 78.7178 28.4072 79.475 28.4185C80.2286 28.4162 80.974 28.2615 81.6664 27.964C82.3588 27.6664 82.9839 27.232 83.5043 26.6869C84.0247 26.1418 84.4296 25.4971 84.6947 24.7917C84.9598 24.0862 85.0796 23.3345 85.047 22.5815L85.046 22.5805ZM95.489 11.6995H88.597V9.56055H104.729V11.7015H97.836V30.0895H95.489V11.6995Z" fill="#21757D"/>
<defs>
<linearGradient id="paint0_linear_123_51" x1="36" y1="3.5" x2="3.5" y2="37.5" gradientUnits="userSpaceOnUse">
<stop stop-color="#2A4B56"/>
<stop offset="1" stop-color="#7FABAB"/>
</linearGradient>
</defs>
</svg>
