<svg width="12" height="10" viewBox="0 0 12 10" xmlns="http://www.w3.org/2000/svg">
<path d="M9.45 6.8H2.5575C2.475 6.8 2.4075 6.8675 2.4075 6.95L2.40563 7.85C2.40563 7.9325 2.47313 8 2.55563 8H9.45C9.5325 8 9.6 7.9325 9.6 7.85V6.95C9.6 6.8675 9.5325 6.8 9.45 6.8ZM9.45 8.6H2.55188C2.46938 8.6 2.40188 8.6675 2.40188 8.75L2.4 9.65C2.4 9.7325 2.4675 9.8 2.55 9.8H9.45C9.5325 9.8 9.6 9.7325 9.6 9.65V8.75C9.6 8.6675 9.5325 8.6 9.45 8.6ZM9.45 5H2.56125C2.47875 5 2.41125 5.0675 2.41125 5.15L2.40938 6.05C2.40938 6.1325 2.47688 6.2 2.55938 6.2H9.45C9.5325 6.2 9.6 6.1325 9.6 6.05V5.15C9.6 5.0675 9.5325 5 9.45 5ZM11.4469 2.39375L6.345 0.269377C6.23534 0.223886 6.11778 0.20047 5.99906 0.20047C5.88034 0.20047 5.76279 0.223886 5.65313 0.269377L0.553125 2.39375C0.219375 2.53438 0 2.86063 0 3.22438V9.65C0 9.7325 0.0675 9.8 0.15 9.8H1.65C1.7325 9.8 1.8 9.7325 1.8 9.65V5C1.8 4.67 2.07375 4.4 2.41125 4.4H9.58875C9.92625 4.4 10.2 4.67 10.2 5V9.65C10.2 9.7325 10.2675 9.8 10.35 9.8H11.85C11.9325 9.8 12 9.7325 12 9.65V3.22438C12 2.86063 11.7806 2.53438 11.4469 2.39375Z" fill="#696977"/>
</svg>
