<svg width="137" height="82" viewBox="0 0 137 82" fill="none" xmlns="http://www.w3.org/2000/svg">
<g id="First Abu Dhabi Bank 1" clip-path="url(#clip0_1024_5862)">
<g id="Clip path group">
<mask id="mask0_1024_5862" style="mask-type:luminance" maskUnits="userSpaceOnUse" x="0" y="0" width="137" height="82">
<g id="a">
<path id="Vector" d="M0 0H137V82H0V0Z" fill="white"/>
</g>
</mask>
<g mask="url(#mask0_1024_5862)">
<g id="Group">
<path id="Vector_2" d="M137.003 1.67003L98.4385 22.7866H113.882C109.963 31.1733 108.302 40.44 109.062 49.6679C109.822 58.8958 112.978 67.7644 118.217 75.3943C113.619 47.8471 124.881 21.1734 137.003 1.66846V1.67003Z" fill="#DA291C"/>
<path id="Vector_3" d="M5.28789 81.877H6.5634V75.8216H5.28789V81.877ZM5.12411 74.0128C5.12533 73.9082 5.14732 73.8049 5.18882 73.7089C5.23032 73.6128 5.29049 73.526 5.36583 73.4535C5.44116 73.381 5.53016 73.3242 5.62762 73.2865C5.72508 73.2488 5.82907 73.2309 5.93352 73.2338C6.38703 73.2338 6.74134 73.5934 6.74134 74.0128C6.73721 74.2235 6.64986 74.4239 6.49845 74.5702C6.34704 74.7166 6.1439 74.7968 5.93352 74.7934C5.82894 74.7964 5.72483 74.7784 5.62726 74.7406C5.52969 74.7028 5.44063 74.6459 5.36527 74.5732C5.28991 74.5005 5.22978 74.4135 5.18837 74.3173C5.14696 74.2211 5.12512 74.1176 5.12411 74.0128ZM7.81845 75.768H9.04515V76.4066C9.41206 75.9682 9.90179 75.667 10.5521 75.667C10.7238 75.667 10.9191 75.7049 11.0545 75.7427V76.8813C10.8509 76.8245 10.6407 76.7948 10.4293 76.793C9.75535 76.793 9.37426 77.0311 9.05775 77.3055V81.8785H7.81845V75.768ZM11.5946 81.5474V80.5634C11.9883 80.7353 12.6906 80.9198 13.2544 80.9198C14.0417 80.9198 14.4228 80.6612 14.4228 80.1077C14.4228 79.603 14.0417 79.4674 13.3047 79.2088C12.4182 78.9518 11.6072 78.4834 11.6072 77.4016C11.6072 76.2095 12.4796 75.667 13.7598 75.667C14.3866 75.667 14.9771 75.8027 15.2716 75.9257V76.9223C14.8065 76.7318 14.3095 76.6312 13.8071 76.6258C13.1205 76.6258 12.7882 76.8718 12.7882 77.3165C12.7882 77.758 13.0953 77.9315 13.8701 78.1775C14.7062 78.4472 15.64 78.8398 15.64 80.0335C15.64 81.1894 14.7551 81.8785 13.4402 81.8785C12.7268 81.8785 12.0261 81.7429 11.5946 81.5474ZM16.7754 80.1313V76.5959H15.9125V75.6718H16.7896L17.0211 74.0475H18.0793V75.6718H19.5217V76.5959H18.0793V79.9436C18.0793 80.5823 18.3092 80.8551 18.8903 80.8551C19.2115 80.8551 19.4965 80.781 19.6886 80.7053V81.7035C19.3354 81.82 18.966 81.8796 18.5942 81.8801C17.3943 81.8801 16.7754 81.407 16.7754 80.1313ZM27.5433 78.988L26.7843 76.7252C26.6048 76.1985 26.3906 75.5567 26.3024 75.1798H26.2757C26.1749 75.5567 25.9607 76.1985 25.7828 76.7252L24.9844 78.988H27.5433ZM25.5796 74.0475H27.1008L29.9353 81.8801H28.4928L27.885 80.0572H24.6301L23.997 81.8801H22.6554L25.5796 74.0475ZM34.2878 78.7105C34.2878 77.4931 33.9225 76.5753 32.7729 76.5753C32.3556 76.5753 31.9541 76.7267 31.7084 76.9396V80.7337C31.9651 80.8204 32.3194 80.8709 32.6501 80.8709C33.7996 80.8709 34.2878 79.9421 34.2878 78.7105ZM30.4738 81.4607V73.2338H31.7084V76.1102C31.9289 75.8594 32.4422 75.533 33.1524 75.533C34.8878 75.533 35.5964 76.927 35.5964 78.6474C35.5964 80.4183 34.5571 81.877 32.6249 81.877C31.8186 81.877 31.0234 81.6877 30.4738 81.4607ZM36.4089 79.7182V75.667H37.6419V79.5179C37.6419 80.3678 37.8986 80.8661 38.7993 80.8661C39.2796 80.8661 39.7237 80.6422 40.0197 80.442V75.667H41.2638V81.7792H40.0308V81.2919C39.7347 81.5285 39.1568 81.8785 38.3679 81.8785C36.9034 81.8785 36.4089 80.9545 36.4089 79.7182ZM47.8634 80.7983C49.9011 80.7983 50.4003 79.4785 50.4003 77.9693C50.4003 76.4602 49.9263 75.1025 47.9374 75.1025H46.8745V80.7983H47.8634ZM45.5738 74.0475H48.0886C50.7656 74.0475 51.7766 75.932 51.7766 77.9693C51.7766 79.8932 50.8018 81.8801 48.0492 81.8801H45.5738V74.0475ZM52.8568 73.2338H54.0772V76.066C54.5529 75.6953 55.1373 75.4919 55.7401 75.4873C57.2062 75.4873 57.7116 76.3987 57.7116 77.6177V81.6073H56.4676V77.8148C56.4676 76.979 56.2204 76.4855 55.3212 76.4855C54.8283 76.4855 54.3843 76.7062 54.1024 76.9034V81.6073H52.8584L52.8568 73.2338ZM61.9397 80.5397V79.1378C61.85 79.1378 61.6201 79.1237 61.4547 79.1237C60.3965 79.1237 59.8218 79.4075 59.8218 80.084C59.8218 80.6391 60.2044 80.945 60.8422 80.945C61.3146 80.945 61.7098 80.7605 61.9397 80.5397ZM62.1067 81.202C61.8232 81.549 61.2122 81.8801 60.4737 81.8801C59.299 81.8801 58.5226 81.2415 58.5226 80.1818C58.5226 78.9391 59.606 78.3368 61.3288 78.3368C61.5319 78.3368 61.7744 78.351 61.9397 78.362V77.8826C61.9397 77.0216 61.5823 76.6652 60.6642 76.6652C60.0139 76.6652 59.4659 76.8497 59.0958 77.009V75.9998C59.5304 75.8279 60.1666 75.6686 60.8941 75.6686C62.3602 75.6686 63.2279 76.271 63.2279 77.6745V80.4041C63.2279 80.7857 63.4058 80.9087 63.6845 80.9087C63.7622 80.9061 63.8396 80.8977 63.916 80.8835V81.7445C63.6858 81.8406 63.4378 81.8864 63.1885 81.8785C62.6405 81.8785 62.272 81.6199 62.1067 81.202ZM68.2685 78.7105C68.2685 77.4931 67.9016 76.5753 66.7521 76.5753C66.3363 76.5753 65.9332 76.7267 65.6891 76.9396V80.7337C65.9458 80.8204 66.3001 80.8709 66.6292 80.8709C67.7788 80.8709 68.2685 79.9421 68.2685 78.7105ZM64.453 81.4607V73.2338H65.6891V76.1102C65.9096 75.8594 66.4214 75.533 67.1316 75.533C68.8669 75.533 69.5771 76.927 69.5771 78.6474C69.5771 80.4183 68.5378 81.877 66.6056 81.877C65.8685 81.8729 65.1386 81.7317 64.453 81.4607ZM70.5518 81.877H71.8289V75.8216H70.5534L70.5518 81.877ZM70.3881 74.0128C70.3893 73.9082 70.4113 73.8049 70.4528 73.7089C70.4943 73.6128 70.5545 73.526 70.6298 73.4535C70.7051 73.381 70.7941 73.3242 70.8916 73.2865C70.9891 73.2488 71.093 73.2309 71.1975 73.2338C71.6526 73.2338 72.0069 73.5934 72.0069 74.0128C72.0027 74.2238 71.9152 74.4245 71.7634 74.5708C71.6117 74.7172 71.4081 74.7972 71.1975 74.7934C71.0929 74.7964 70.9888 74.7784 70.8912 74.7406C70.7937 74.7028 70.7046 74.6459 70.6292 74.5732C70.5539 74.5005 70.4937 74.4135 70.4523 74.3173C70.4109 74.2211 70.3891 74.1176 70.3881 74.0128ZM78.8837 80.8362C79.8096 80.8362 80.2977 80.3978 80.2977 79.5794C80.2977 78.7373 79.8474 78.2705 78.9089 78.2705H77.6176V80.8362H78.8837ZM78.8459 77.3291C79.7482 77.3291 80.1592 76.9144 80.1592 76.1732C80.1592 75.5314 79.7592 75.0915 78.8585 75.0915H77.6192V77.3291H78.8459ZM76.3185 74.0475H78.9955C80.6111 74.0475 81.4615 74.8407 81.4615 76.0345C81.4615 76.9649 80.8599 77.5798 80.197 77.758V77.7817C81.0473 77.9567 81.7118 78.5733 81.7118 79.6172C81.7118 80.9892 80.7103 81.8801 79.071 81.8801H76.3185V74.0475ZM85.6707 80.5397V79.1378C85.5825 79.1378 85.3526 79.1237 85.1872 79.1237C84.1274 79.1237 83.5543 79.4075 83.5543 80.084C83.5543 80.6391 83.9369 80.945 84.5747 80.945C85.0471 80.945 85.4408 80.7605 85.6707 80.5397ZM85.8376 81.202C85.5573 81.549 84.9447 81.8801 84.2062 81.8801C83.0314 81.8801 82.2535 81.2415 82.2535 80.1818C82.2535 78.9391 83.3385 78.3368 85.0597 78.3368C85.2644 78.3368 85.5053 78.351 85.6707 78.362V77.8826C85.6707 77.0216 85.3132 76.6652 84.3951 76.6652C83.7464 76.6652 83.1984 76.8497 82.8283 77.009V75.9998C83.2629 75.8279 83.8991 75.6686 84.6251 75.6686C86.0911 75.6686 86.9588 76.271 86.9588 77.6745V80.4041C86.9588 80.7857 87.1367 80.9087 87.417 80.9087C87.48 80.9087 87.5713 80.8961 87.6485 80.8835V81.7445C87.4178 81.8409 87.1692 81.8866 86.9194 81.8785C86.373 81.8785 86.0014 81.6199 85.8376 81.202ZM88.1902 75.768H89.409V76.2568C89.8825 75.8796 90.4685 75.6719 91.0735 75.667C92.538 75.667 93.0451 76.5927 93.0451 77.8306V81.8785H91.801V78.0308C91.801 77.1809 91.5538 76.681 90.6546 76.681C90.1602 76.681 89.7177 76.9049 89.4358 77.1068V81.8785H88.1902V75.768ZM97.355 81.0175L95.6386 78.7058V81.8265H94.3899V73.2323H95.637V78.3494L97.7755 75.6465H99.1455L96.8858 78.4251L98.4684 80.4972C98.6652 80.7637 98.8242 80.8756 99.0982 80.8756C99.1219 80.8756 99.1455 80.8756 99.2447 80.8646V81.8249C99.1243 81.8591 98.9997 81.8761 98.8746 81.8754C98.2825 81.8754 97.8511 81.6988 97.355 81.0175ZM0 74.0475H4.58399V75.1293H1.32433V77.2787H4.2407V78.2973H1.32433V81.8801H0V74.0475ZM68.2291 22.736H84.7589C94.1757 22.736 99.2652 27.2019 99.2652 33.8328C99.2652 39.2054 95.9898 42.487 92.4309 43.4615V43.6035C97.1047 44.6505 100.591 47.929 100.591 53.5822C100.591 61.5394 94.5914 66.2165 85.1778 66.2165H68.2291V22.736ZM83.5039 40.4638C87.828 40.4638 89.6405 38.5084 89.6405 35.159C89.6405 32.1582 87.7587 30.2028 83.5731 30.2028H77.7845V40.4638H83.5039ZM83.7117 58.7482C87.9666 58.7482 90.2688 56.7929 90.2688 52.9546C90.2688 49.047 88.1068 47.0222 83.7826 47.0222H77.7845V58.7482H83.7117ZM38.7001 22.736H49.3672L65.264 66.2165H54.8756L52.0883 57.5624H35.1444L32.2155 66.2165H22.3845L38.7001 22.736ZM49.5767 49.8843L45.9517 38.7166C45.1139 36.1352 44.2778 33.6231 43.7896 31.5999H43.651C43.0936 33.5553 42.2558 36.2045 41.4181 38.7166L37.6545 49.8843H49.5767ZM0 22.736H26.6993V30.6222H9.57425V40.7413H24.8112V47.9999H9.57583V66.215H0V22.736ZM10.3978 12.1454H9.0357C8.85577 12.148 8.67723 12.1134 8.51118 12.044C8.34513 11.9745 8.1951 11.8717 8.0704 11.7417C7.9412 11.6162 7.83894 11.4656 7.7699 11.2991C7.70085 11.1326 7.66647 10.9538 7.66885 10.7735V9.92196C7.66553 9.74158 7.69948 9.56245 7.76859 9.39583C7.83769 9.22921 7.94044 9.07869 8.0704 8.95373C8.19485 8.82337 8.3448 8.7201 8.51088 8.65037C8.67697 8.58064 8.85563 8.54595 9.0357 8.54846C9.40891 8.54846 9.73015 8.68408 9.99628 8.95373C10.264 9.21866 10.3978 9.54035 10.3978 9.92039V12.1454ZM9.0357 7.34212C8.32866 7.34212 7.72554 7.596 7.22478 8.1022C6.98149 8.33743 6.78901 8.62017 6.65926 8.93292C6.52952 9.24567 6.46527 9.58176 6.47049 9.92039V10.7735C6.47049 11.4847 6.72245 12.0934 7.22321 12.5996C7.72554 13.101 8.32866 13.3518 9.0357 13.3518H10.3978C10.3835 13.6622 10.2477 13.9545 10.0199 14.1655C9.91151 14.2736 9.78276 14.3591 9.64111 14.417C9.49947 14.475 9.34774 14.5042 9.19475 14.5029H7.84522C7.74601 14.5029 7.69562 14.5534 7.69562 14.6575V15.5579C7.69562 15.662 7.74601 15.7156 7.84522 15.7156H9.19475C9.84668 15.7156 10.4089 15.4743 10.8797 14.9949C11.3584 14.5187 11.5946 13.9526 11.5946 13.2966V9.92196C11.5946 9.20919 11.3458 8.60208 10.8482 8.1022C10.6145 7.85799 10.3331 7.6645 10.0216 7.53375C9.71007 7.403 9.37345 7.33777 9.0357 7.34212ZM18.1911 4.6377H17.3061C17.2085 4.6377 17.1612 4.68658 17.1612 4.78435V10.9501C17.1612 11.2671 17.0935 11.4942 16.9565 11.6298C16.8195 11.7607 16.5943 11.8269 16.2778 11.83H12.8134C12.7237 11.83 12.678 11.8821 12.678 11.983V12.8661C12.678 12.9607 12.7268 13.0096 12.8229 13.0096H16.2778C16.9203 13.0096 17.4258 12.8267 17.7927 12.4577C18.158 12.095 18.3407 11.5903 18.3407 10.9438V4.78435C18.3407 4.68658 18.2919 4.6377 18.1911 4.6377Z" fill="white"/>
<path id="Vector_4" d="M14.4275 5.72282C14.3393 5.72282 14.2952 5.77328 14.2952 5.87421V11.5133C14.2952 11.6142 14.3393 11.6647 14.4275 11.6647H15.2369C15.3282 11.6647 15.3739 11.6142 15.3739 11.5133V5.87421C15.3739 5.77328 15.3282 5.72282 15.2369 5.72282H14.4275ZM13.8732 4.90755H16.0621C16.1408 4.90755 16.1817 4.86971 16.1817 4.79086V4.44867C16.1817 4.37298 16.1408 4.33355 16.0621 4.33355H14.8039V3.69017C14.8039 3.58925 14.8417 3.50094 14.9188 3.43155C14.9544 3.39736 14.9963 3.37056 15.0423 3.3527C15.0882 3.33484 15.1372 3.32626 15.1865 3.32748C15.355 3.32748 15.47 3.40002 15.5314 3.54825L15.6022 3.70594C15.618 3.73432 15.6385 3.75482 15.6621 3.76902C15.678 3.77582 15.6951 3.77957 15.7125 3.78005C15.7287 3.78043 15.7449 3.7772 15.7597 3.77059L16.0904 3.63182C16.1408 3.60817 16.166 3.57663 16.166 3.53721C16.1652 3.51869 16.161 3.5005 16.1534 3.48359L16.0841 3.3259C15.9156 2.93955 15.6164 2.74717 15.1865 2.74717C15.0581 2.74533 14.9305 2.76906 14.8113 2.81697C14.6921 2.86488 14.5836 2.93603 14.4921 3.02629C14.401 3.11089 14.3287 3.2137 14.2799 3.32807C14.2311 3.44244 14.2068 3.5658 14.2086 3.69017V4.33355H13.8732C13.7929 4.33355 13.752 4.37298 13.752 4.44867V4.79086C13.752 4.86971 13.7929 4.90755 13.8732 4.90755ZM20.635 4.6379H19.8288C19.7359 4.6379 19.6902 4.68994 19.6902 4.78928V12.8647C19.6902 12.9609 19.7359 13.0098 19.8288 13.0098H20.635C20.7248 13.0098 20.7689 12.9625 20.7689 12.8647V4.79086C20.7689 4.68994 20.7248 4.6379 20.635 4.6379ZM29.7479 15.7142H28.9967C28.9023 15.7142 28.855 15.7599 28.855 15.8498V16.6477C28.855 16.7424 28.9023 16.7897 28.9967 16.7897H29.7479C29.8392 16.7897 29.8849 16.7424 29.8849 16.6477V15.8498C29.8849 15.7599 29.8392 15.7142 29.7479 15.7142ZM27.8551 15.7142H27.1024C27.011 15.7142 26.9669 15.7599 26.9669 15.8498V16.6477C26.9669 16.7424 27.011 16.7897 27.1024 16.7897H27.8551C27.9448 16.7897 27.9889 16.7424 27.9889 16.6477V15.8498C27.9889 15.7599 27.9448 15.7142 27.8551 15.7142ZM44.8494 14.3659H44.0935C44.0022 14.3659 43.9565 14.4101 43.9565 14.5016V15.2995C43.9565 15.3941 44.0022 15.4398 44.0919 15.4398H44.8494C44.9407 15.4398 44.9864 15.3925 44.9864 15.2979V14.5016C44.9864 14.4101 44.9391 14.3659 44.8494 14.3659ZM53.019 11.0749C53.019 11.4029 52.9497 11.6347 52.8111 11.7719C52.6757 11.9138 52.4474 11.9832 52.123 11.9879H48.8476V10.0452C49.2113 9.62571 49.6979 9.24409 50.3073 8.9019C50.9167 8.56286 51.3939 8.39098 51.7356 8.39098C52.2379 8.39098 52.5954 8.59755 52.8111 9.01071C52.9497 9.27563 53.019 9.60048 53.019 9.98525V11.0749ZM51.7356 7.18148C50.9435 7.18148 49.9798 7.62302 48.8476 8.50925V4.79244C48.8476 4.68994 48.7972 4.6379 48.6948 4.6379H47.8004C47.7012 4.6379 47.6524 4.68994 47.6524 4.79244V11.9879H45.8603C45.5926 11.9879 45.4194 11.9501 45.336 11.8712C45.3075 11.8255 45.2938 11.7721 45.2966 11.7183V7.56309C45.2966 7.46375 45.2462 7.41329 45.1438 7.41329H44.2494C44.1549 7.41329 44.1077 7.46375 44.1077 7.56309V11.5685C44.1077 11.7262 44.0762 11.8366 44.0148 11.8996C43.9518 11.9596 43.8526 11.9879 43.7109 11.9879H34.5445V9.25671C34.5445 8.68428 34.3445 8.19702 33.9445 7.79017C33.7587 7.59359 33.5341 7.43793 33.285 7.33312C33.0358 7.22832 32.7675 7.17667 32.4973 7.18148C31.9336 7.18148 31.4533 7.3849 31.0565 7.79017C30.8623 7.98105 30.709 8.20951 30.6058 8.46164C30.5027 8.71377 30.4519 8.98428 30.4565 9.25671V13.4261H27.1528C26.9656 13.4275 26.7801 13.3909 26.6074 13.3186C26.4347 13.2462 26.2785 13.1395 26.1481 13.0051C26.014 12.8723 25.9082 12.7138 25.837 12.539C25.7658 12.3641 25.7308 12.1767 25.7339 11.9879C25.7339 11.7072 25.8064 11.4471 25.9528 11.2074C26.0899 10.9722 26.2924 10.7821 26.5355 10.6602L26.9354 10.4504C26.9984 10.4221 27.0284 10.3826 27.0284 10.3337C27.0265 10.3046 27.0173 10.2764 27.0016 10.2517L26.5969 9.44436C26.5886 9.42601 26.5766 9.40956 26.5617 9.396C26.5468 9.38244 26.5293 9.37207 26.5103 9.36552C26.4918 9.35704 26.4715 9.35359 26.4513 9.35553C26.4311 9.35747 26.4118 9.36472 26.3953 9.37655L25.9953 9.58155C25.5544 9.81178 25.2017 10.1429 24.9371 10.5782C24.6787 11.0028 24.5424 11.4907 24.5435 11.9879C24.5435 12.7212 24.8001 13.3472 25.3072 13.8629C25.5407 14.1084 25.8221 14.3032 26.1338 14.4353C26.4456 14.5674 26.7812 14.6339 27.1197 14.6309H31.0517C31.1302 14.6322 31.2081 14.6171 31.2805 14.5867C31.3529 14.5563 31.4181 14.5112 31.4722 14.4542C31.5283 14.3987 31.5725 14.3323 31.6023 14.2591C31.6321 14.1859 31.6467 14.1075 31.6454 14.0285V9.25671C31.6432 9.14239 31.6644 9.02883 31.7077 8.92304C31.751 8.81726 31.8156 8.72151 31.8974 8.64171C31.9744 8.56008 32.0674 8.49537 32.1707 8.45166C32.274 8.40796 32.3852 8.38622 32.4973 8.38782C32.6104 8.38592 32.7227 8.4075 32.827 8.45119C32.9314 8.49489 33.0255 8.55976 33.1036 8.64171C33.1854 8.72151 33.2499 8.81726 33.2933 8.92304C33.3366 9.02883 33.3578 9.14239 33.3555 9.25671V12.5903C33.3555 12.7606 33.4138 12.9026 33.5288 13.0161C33.5828 13.0731 33.648 13.1183 33.7204 13.1487C33.7928 13.1791 33.8707 13.1941 33.9492 13.1927H43.7046C44.1518 13.1927 44.5187 13.0618 44.8021 12.8001C45.1108 13.0618 45.536 13.1943 46.0777 13.1943H52.1246C52.7796 13.1943 53.2898 13.0051 53.6583 12.6297C54.0252 12.2576 54.2095 11.7388 54.2095 11.0749V9.98682C54.2095 9.14948 53.9827 8.47298 53.5276 7.95575C53.0725 7.44009 52.4757 7.18305 51.7372 7.18305L51.7356 7.18148Z" fill="white"/>
<path id="Vector_5" d="M50.8348 6.25584H51.5859C51.6804 6.25584 51.7276 6.21011 51.7276 6.11865V5.32073C51.7276 5.22611 51.6804 5.18038 51.5859 5.18038H50.8348C50.7434 5.18038 50.6978 5.22769 50.6978 5.3223V6.11865C50.6978 6.21011 50.745 6.25584 50.8348 6.25584ZM59.1933 12.1456H57.8359C57.6572 12.1479 57.4799 12.1133 57.3152 12.0438C57.1504 11.9743 57.0018 11.8716 56.8785 11.742C56.75 11.616 56.6484 11.4653 56.58 11.2988C56.5115 11.1324 56.4775 10.9537 56.4801 10.7737V9.92219C56.4801 9.54057 56.6124 9.21888 56.8785 8.95396C57.0015 8.82389 57.1501 8.72074 57.3149 8.65099C57.4796 8.58124 57.6571 8.54641 57.8359 8.54869C58.2107 8.54869 58.5304 8.6843 58.7918 8.95396C59.0595 9.21888 59.1918 9.54057 59.1918 9.92061L59.1933 12.1456ZM68.6211 7.56942H67.7251C67.6275 7.56942 67.5771 7.61988 67.5771 7.71923V11.7246C67.5771 11.8839 67.5456 11.9943 67.4842 12.0558C67.4275 12.1157 67.3157 12.1456 67.1567 12.1456H60.3901V9.92219C60.3901 9.20942 60.1382 8.6023 59.6405 8.10242C59.1398 7.59623 58.5383 7.34234 57.8359 7.34234C57.132 7.34234 56.5321 7.59623 56.036 8.10242C55.794 8.3384 55.6027 8.62139 55.4738 8.93404C55.3449 9.24669 55.2812 9.58241 55.2865 9.92061V10.7737C55.2865 11.4849 55.5384 12.0936 56.036 12.5998C56.5321 13.1013 57.132 13.352 57.8359 13.352H59.1918C59.1768 13.6609 59.0437 13.9523 58.8201 14.1657C58.6019 14.3822 58.3069 14.5035 57.9997 14.5031H56.6502C56.551 14.5031 56.5021 14.5536 56.5021 14.6577V15.5581C56.5021 15.6622 56.551 15.7158 56.6502 15.7158H57.9997C58.3087 15.7177 58.6148 15.6567 58.8995 15.5366C59.1843 15.4165 59.4417 15.2398 59.6563 15.0172C59.8824 14.8019 60.0636 14.5439 60.1896 14.2581C60.3155 13.9723 60.3837 13.6643 60.3901 13.352H67.1582C67.6464 13.352 68.0401 13.2053 68.3345 12.9136C68.6259 12.6124 68.7707 12.215 68.7707 11.7246V7.71923C68.7707 7.61988 68.7203 7.56942 68.6211 7.56942ZM67.7755 14.366H67.0228C66.9283 14.366 66.8811 14.4101 66.8811 14.5016V15.2995C66.8811 15.3941 66.9283 15.4398 67.0228 15.4398H67.7755C67.8653 15.4398 67.9109 15.3925 67.9109 15.2979V14.5016C67.9109 14.4101 67.8653 14.366 67.7755 14.366ZM71.8871 3.2518H70.6336V2.60842C70.6336 2.50592 70.6698 2.41919 70.7438 2.34823C70.7792 2.31368 70.8211 2.28654 70.8671 2.2684C70.913 2.25026 70.9622 2.24148 71.0116 2.24257C71.1769 2.24257 71.2918 2.31511 71.3533 2.46492L71.4241 2.62419C71.4477 2.67465 71.4808 2.6983 71.5249 2.6983C71.5437 2.69843 71.5624 2.69523 71.58 2.68884L71.9154 2.55638C71.9438 2.54534 71.9643 2.52326 71.9768 2.48699C71.9827 2.47353 71.9859 2.45908 71.9863 2.44442C71.986 2.42974 71.9828 2.41526 71.9768 2.40184L71.9107 2.24415C71.7406 1.86096 71.4414 1.67015 71.0131 1.67015C70.8852 1.66737 70.758 1.69021 70.639 1.73733C70.5201 1.78444 70.4117 1.85489 70.3202 1.94453C70.2287 2.02855 70.1558 2.13096 70.1064 2.24508C70.057 2.35921 70.0322 2.48247 70.0337 2.60684V3.2518H69.6982C69.6164 3.2518 69.577 3.28965 69.577 3.36849V3.71384C69.577 3.79111 69.6164 3.83053 69.6982 3.83053H71.8871C71.9658 3.83053 72.0036 3.79111 72.0036 3.71384V3.36849C72.0036 3.28965 71.9643 3.2518 71.8871 3.2518ZM71.0619 4.63792H70.2588C70.1644 4.63792 70.1171 4.6868 70.1171 4.78457V12.8647C70.1171 12.9609 70.1644 13.0098 70.2588 13.0098H71.0619C71.1517 13.0098 71.1958 12.9625 71.1958 12.8647V4.78457C71.1958 4.6868 71.1517 4.63792 71.0619 4.63792ZM78.0568 8.96184H80.2488C80.3244 8.96184 80.3622 8.92242 80.3622 8.84515V8.49823C80.3622 8.41938 80.3244 8.38153 80.2488 8.38153H78.9922V7.74288C78.9916 7.69353 79.0011 7.64459 79.02 7.59903C79.039 7.55348 79.067 7.51228 79.1024 7.47796C79.1379 7.44355 79.1798 7.41651 79.2257 7.39838C79.2717 7.38025 79.3208 7.37138 79.3701 7.3723C79.5433 7.3723 79.6567 7.44642 79.7166 7.59307L79.7874 7.75865C79.8095 7.8028 79.8441 7.82646 79.8914 7.82646C79.9117 7.82578 79.9319 7.82206 79.9512 7.81542L80.2819 7.68296C80.3072 7.6683 80.3275 7.64631 80.3401 7.61988C80.3444 7.60664 80.3466 7.5928 80.3464 7.57888C80.3468 7.56288 80.3446 7.54693 80.3401 7.53157L80.2693 7.37388C80.1008 6.98911 79.8016 6.79988 79.3717 6.79988C79.2442 6.7971 79.1173 6.8198 78.9986 6.86664C78.8799 6.91348 78.7718 6.98352 78.6804 7.07269C78.5894 7.15867 78.5172 7.26263 78.4684 7.378C78.4197 7.49336 78.3953 7.61761 78.397 7.74288V8.37996H78.0568C77.9765 8.37996 77.9356 8.41938 77.9356 8.49665V8.84357C77.9356 8.92242 77.9765 8.96184 78.0568 8.96184ZM93.985 6.25111H94.744C94.8322 6.25111 94.8779 6.20538 94.8779 6.11549V5.31442C94.8779 5.22453 94.8322 5.1788 94.744 5.1788H93.985C93.8937 5.1788 93.8496 5.22453 93.8496 5.31442V6.11392C93.8496 6.2038 93.8937 6.25111 93.985 6.25111Z" fill="white"/>
<path id="Vector_6" d="M99.0967 7.35631H98.2022C98.1046 7.35631 98.0558 7.40362 98.0558 7.50296V11.42C98.0558 11.5762 98.0243 11.6834 97.9613 11.7449C97.903 11.8017 97.796 11.8316 97.6353 11.8316H95.4055C95.1504 11.8316 94.9867 11.7922 94.9142 11.7133C94.8827 11.6834 94.8654 11.6329 94.8654 11.5604V7.49666C94.8654 7.39573 94.815 7.34527 94.719 7.34527H93.823C93.7269 7.34527 93.6765 7.39573 93.6765 7.49666V11.409C93.6765 11.5714 93.6466 11.6802 93.5899 11.7338C93.5269 11.7953 93.4261 11.8285 93.2844 11.8316H83.4708C83.2125 11.8316 83.0456 11.7922 82.9748 11.7133C82.9448 11.6913 82.9307 11.6408 82.9307 11.5604V4.78435C82.9307 4.68973 82.8819 4.6377 82.7826 4.6377H81.8898C81.7874 4.6377 81.7355 4.68816 81.7355 4.78435V11.409C81.7355 11.5762 81.7087 11.685 81.6488 11.7402C81.5859 11.8017 81.4835 11.8316 81.3386 11.8316H77.5719C77.3864 11.833 77.2025 11.7975 77.0309 11.7271C76.8592 11.6567 76.7032 11.5529 76.572 11.4216C76.4391 11.2923 76.3341 11.1373 76.2631 10.9659C76.1922 10.7945 76.1569 10.6105 76.1594 10.425C76.1587 10.1552 76.2341 9.89066 76.3767 9.66177C76.5172 9.43216 76.719 9.24645 76.9594 9.12562L77.3593 8.92062C77.4176 8.89066 77.4459 8.85281 77.4459 8.8055C77.445 8.77803 77.438 8.7511 77.4255 8.72666L77.0208 7.93504C77.0122 7.91723 77.0001 7.90134 76.9852 7.88833C76.9703 7.87532 76.9529 7.86546 76.9342 7.85935C76.9186 7.85142 76.9012 7.84762 76.8838 7.84831C76.8606 7.84942 76.8382 7.85707 76.8192 7.87039L76.4161 8.07066C75.9752 8.293 75.6256 8.61785 75.3626 9.04362C75.1028 9.46939 74.9705 9.92985 74.9705 10.425C74.9705 11.1425 75.2256 11.7528 75.7327 12.259C76.2429 12.7604 76.8554 13.0096 77.5719 13.0096H81.3213C81.7764 13.0096 82.148 12.8818 82.4346 12.6217C82.7433 12.8818 83.1716 13.0096 83.7164 13.0096H93.2624C93.7174 13.0096 94.0875 12.8818 94.3741 12.6217C94.6827 12.8818 95.1095 13.0096 95.6496 13.0096H97.6369C98.1235 13.0096 98.5156 12.8677 98.8085 12.5838C99.0998 12.2873 99.2447 11.8994 99.2447 11.42V7.50296C99.2447 7.40519 99.1959 7.35631 99.0967 7.35631ZM4.97452 4.6377H4.10055C4.00135 4.6377 3.95095 4.68816 3.95095 4.7875V12.5318C3.95438 12.7201 3.91989 12.9073 3.84955 13.082C3.77921 13.2568 3.67446 13.4156 3.54153 13.5489C3.41608 13.6827 3.26424 13.7889 3.09563 13.8609C2.92702 13.9328 2.74532 13.9689 2.56206 13.9668C2.37853 13.9691 2.19653 13.9331 2.02763 13.8612C1.85873 13.7892 1.70664 13.6829 1.58101 13.5489C1.4473 13.416 1.34181 13.2574 1.27091 13.0826C1.20001 12.9078 1.16515 12.7204 1.16844 12.5318V9.67754C1.16844 9.57504 1.1212 9.523 1.02986 9.523H0.149598C0.0488161 9.523 0 9.57504 0 9.67912V12.5333C0 13.2603 0.248805 13.8832 0.751138 14.3973C1.25032 14.9129 1.85344 15.17 2.56206 15.17C3.26595 15.17 3.86907 14.9129 4.37298 14.3973C4.87374 13.8832 5.12411 13.2619 5.12411 12.5318V4.78908C5.12411 4.68816 5.07372 4.6377 4.97452 4.6377ZM98.2479 14.3657H97.4968C97.4023 14.3657 97.355 14.4099 97.355 14.5013V15.2993C97.355 15.3939 97.4023 15.4396 97.4968 15.4396H98.2479C98.3377 15.4396 98.3849 15.3923 98.3849 15.2977V14.5013C98.3849 14.4099 98.3377 14.3657 98.2479 14.3657Z" fill="white"/>
</g>
</g>
</g>
</g>
<defs>
<clipPath id="clip0_1024_5862">
<rect width="137" height="82" fill="white"/>
</clipPath>
</defs>
</svg>
