<svg width="141" height="57" viewBox="0 0 141 57" fill="none" xmlns="http://www.w3.org/2000/svg">
<path d="M9.0535 7.3745V25.893H31.2295V32.5535H9.0535V56H0.8145V0.713996H35.0795V7.3745H9.0535ZM82.4417 44.142C82.9037 44.142 83.3016 44.3217 83.6352 44.681L86.8692 48.223C84.6106 50.8923 81.8514 52.9585 78.5917 54.4215C75.3577 55.8845 71.4564 56.616 66.8877 56.616C62.8837 56.616 59.2519 55.923 55.9922 54.537C52.7582 53.151 49.9862 51.2132 47.6762 48.7235C45.3919 46.2338 43.6209 43.2565 42.3632 39.7915C41.1056 36.3265 40.4767 32.515 40.4767 28.357C40.4767 24.199 41.1312 20.3875 42.4402 16.9225C43.7749 13.4575 45.6357 10.4802 48.0227 7.9905C50.4097 5.50083 53.2587 3.563 56.5697 2.177C59.9064 0.790998 63.5896 0.0979992 67.6192 0.0979992C71.5462 0.0979992 75.0369 0.739665 78.0912 2.023C81.1456 3.30633 83.8021 5.01316 86.0607 7.1435L83.3657 10.955C83.1861 11.2373 82.9551 11.4683 82.6727 11.648C82.4161 11.8277 82.0696 11.9175 81.6332 11.9175C81.1456 11.9175 80.5681 11.6737 79.9007 11.186C79.2591 10.6983 78.3992 10.1593 77.3212 9.569C76.2689 8.953 74.9599 8.40117 73.3942 7.9135C71.8286 7.42583 69.8779 7.182 67.5422 7.182C64.7959 7.182 62.2806 7.66967 59.9962 8.645C57.7119 9.59466 55.7356 10.9807 54.0672 12.803C52.4246 14.5997 51.1412 16.8198 50.2172 19.4635C49.3189 22.0815 48.8697 25.046 48.8697 28.357C48.8697 31.7193 49.3446 34.7095 50.2942 37.3275C51.2439 39.9455 52.5529 42.1657 54.2212 43.988C55.8896 45.8103 57.8531 47.1963 60.1117 48.146C62.3704 49.0957 64.8087 49.5705 67.4267 49.5705C69.0181 49.5705 70.4426 49.4807 71.7002 49.301C72.9836 49.0957 74.1514 48.8005 75.2037 48.4155C76.2817 48.0305 77.2956 47.5428 78.2452 46.9525C79.1949 46.3365 80.1317 45.605 81.0557 44.758C81.2611 44.5783 81.4792 44.4372 81.7102 44.3345C81.9412 44.2062 82.1851 44.142 82.4417 44.142ZM124.485 35.4025L116.284 13.958C115.694 12.495 115.104 10.647 114.513 8.414C114.231 9.51766 113.936 10.5443 113.628 11.494C113.346 12.4437 113.063 13.2907 112.781 14.035L104.619 35.4025H124.485ZM140.693 56H134.379C133.661 56 133.07 55.8203 132.608 55.461C132.146 55.1017 131.813 54.6397 131.607 54.075L126.718 41.2545H102.347L97.4579 54.075C97.2783 54.5627 96.9446 55.0118 96.4569 55.4225C95.9693 55.8075 95.3789 56 94.6859 56H88.3719L110.394 0.713996H118.671L140.693 56Z" fill="white"/>
</svg>
